<svg width="61" height="61" viewBox="0 0 61 61" fill="none" xmlns="http://www.w3.org/2000/svg">
<g clip-path="url(#clip0_2997_275)">
<path d="M18.2382 15.6155C18.8272 15.9047 19.4376 16.2046 20.0695 16.5044C25.2849 19.0212 32.3209 22.4052 34.8376 28.97C34.8494 28.9293 34.8633 28.8908 34.8805 28.8522C35.5434 27.4835 36.3595 26.1931 37.3114 25.0075C37.8148 24.3435 38.286 23.7117 38.7143 23.037C39.8098 21.3407 40.3999 19.3692 40.4171 17.3505C40.4593 15.2844 40.2162 13.2235 39.697 11.2247H57.2521C58.1389 11.2247 58.8585 11.9443 58.8585 12.8311C58.8585 13.7179 58.1389 14.4375 57.2521 14.4375H51.8974C49.8274 14.4375 48.1492 16.1156 48.1492 18.1857C48.1492 20.2558 49.8273 21.934 51.8974 21.934H55.1102C55.997 21.934 56.7166 22.6536 56.7166 23.5404C56.7166 24.4272 55.997 25.1468 55.1102 25.1468H46.5428C44.4738 25.1489 42.7967 26.8259 42.7945 28.8951V31.5724H26.7307C26.1395 31.5745 25.6618 32.0522 25.6597 32.6433V55.1328H36.369C36.9602 55.135 37.4378 55.6126 37.44 56.2038H46.0074C46.0095 55.6126 46.4872 55.135 47.0783 55.1328H57.7876V32.6432C57.7855 32.0521 57.3079 31.5744 56.7167 31.5723H44.9365V28.8949C44.9376 28.0082 45.6561 27.2896 46.5429 27.2886H55.1103C57.1804 27.2886 58.8586 25.6105 58.8586 23.5403C58.8586 21.4702 57.1805 19.792 55.1103 19.792H51.8976C51.0108 19.792 50.2912 19.0724 50.2912 18.1856C50.2912 17.2989 51.0108 16.5793 51.8976 16.5793H57.2522C59.3223 16.5793 61.0005 14.9012 61.0005 12.831C61.0005 10.7609 59.3224 9.08269 57.2522 9.08269H38.8763C38.0606 7.46476 36.8721 6.05187 35.3944 4.97031C31.175 1.68275 27.2554 0.311915 22.6932 0.536853C20.1294 0.722116 17.5817 1.08728 15.0682 1.62925C14.3828 1.76853 13.7617 1.92913 13.162 2.11118C13.1084 4.62778 13.3333 13.1845 18.2382 15.6155ZM29.922 49.9922C29.9102 50.0597 29.8887 50.124 29.8577 50.185C29.8341 50.2535 29.8021 50.3179 29.7614 50.3778L29.6328 50.5384C29.4272 50.7344 29.1562 50.8447 28.8724 50.849C28.8039 50.8468 28.7364 50.8404 28.669 50.8275C28.5983 50.8179 28.5297 50.7954 28.4655 50.7633C28.397 50.7397 28.3326 50.7077 28.2727 50.6669C28.2171 50.6273 28.1634 50.5845 28.1121 50.5384C27.6976 50.1164 27.6976 49.4397 28.1121 49.0177C28.4227 48.7189 28.88 48.63 29.2794 48.7927C29.4091 48.8473 29.5289 48.9234 29.6328 49.0177C29.8288 49.2233 29.9391 49.4942 29.9434 49.778C29.9413 49.8498 29.9338 49.9216 29.922 49.9922ZM29.6328 46.2547C29.4315 46.456 29.1573 46.5685 28.8724 46.5653C28.8039 46.5631 28.7364 46.5567 28.669 46.5438C28.5983 46.5342 28.5297 46.5117 28.4655 46.4796C28.397 46.456 28.3326 46.424 28.2727 46.3832L28.1121 46.2547C27.9161 46.049 27.8058 45.7781 27.8015 45.4943C27.8036 45.354 27.8326 45.2159 27.8872 45.0873C27.9385 44.9566 28.0157 44.8368 28.1121 44.734L28.2727 44.6054C28.3326 44.5647 28.397 44.5326 28.4655 44.509C28.5297 44.4769 28.5983 44.4545 28.669 44.4448C29.018 44.3817 29.3758 44.4888 29.6328 44.734C29.727 44.8379 29.8031 44.9578 29.8577 45.0873C29.9123 45.2159 29.9423 45.354 29.9434 45.4943C29.9466 45.7792 29.8341 46.0533 29.6328 46.2547ZM29.6328 41.971C29.4315 42.1723 29.1573 42.2848 28.8724 42.2816C28.8039 42.2794 28.7364 42.273 28.669 42.2601C28.5983 42.2505 28.5297 42.228 28.4655 42.1959C28.397 42.1723 28.3326 42.1403 28.2727 42.0995L28.1121 41.971C27.9161 41.7653 27.8058 41.4944 27.8015 41.2106C27.8036 41.0704 27.8326 40.9322 27.8872 40.8036C27.9385 40.6729 28.0157 40.5531 28.1121 40.4503C28.1634 40.4043 28.2171 40.3614 28.2727 40.3217C28.3326 40.281 28.397 40.2489 28.4655 40.2253C28.5297 40.1932 28.5983 40.1708 28.669 40.1611C29.1702 40.0508 29.6756 40.3239 29.8577 40.8036C29.9123 40.9322 29.9423 41.0703 29.9434 41.2106C29.9466 41.4955 29.8341 41.7696 29.6328 41.971ZM29.922 37.1411C29.9102 37.2086 29.8887 37.2729 29.8577 37.3339C29.8341 37.4024 29.8021 37.4668 29.7614 37.5267L29.6328 37.6873C29.4272 37.8833 29.1562 37.9936 28.8724 37.9979C28.8039 37.9957 28.7364 37.9893 28.669 37.9764C28.5983 37.9668 28.5297 37.9443 28.4655 37.9122C28.397 37.8886 28.3326 37.8566 28.2727 37.8158C28.2171 37.7762 28.1634 37.7334 28.1121 37.6873C27.6976 37.2653 27.6976 36.5884 28.1121 36.1666C28.5415 35.7703 29.2034 35.7703 29.6328 36.1666L29.7614 36.3272C29.8021 36.3871 29.8341 36.4514 29.8577 36.5199C29.8888 36.5809 29.9102 36.6453 29.922 36.7127C29.9509 36.8541 29.9509 36.9997 29.922 37.1411ZM37.4399 50.849H33.1561C32.565 50.849 32.0852 50.3692 32.0852 49.778C32.0852 49.1869 32.565 48.7071 33.1561 48.7071H37.4399C38.031 48.7071 38.5108 49.1869 38.5108 49.778C38.5108 50.3692 38.031 50.849 37.4399 50.849ZM37.4399 46.5653H33.1561C32.565 46.5653 32.0852 46.0855 32.0852 45.4943C32.0852 44.9032 32.565 44.4234 33.1561 44.4234H37.4399C38.031 44.4234 38.5108 44.9032 38.5108 45.4943C38.5108 46.0855 38.031 46.5653 37.4399 46.5653ZM37.4399 42.2816H33.1561C32.565 42.2816 32.0852 41.8018 32.0852 41.2106C32.0852 40.6195 32.565 40.1397 33.1561 40.1397H37.4399C38.031 40.1397 38.5108 40.6195 38.5108 41.2106C38.5108 41.8018 38.031 42.2816 37.4399 42.2816ZM37.4399 37.9979H33.1561C32.565 37.9979 32.0852 37.5181 32.0852 36.9269C32.0852 36.3358 32.565 35.856 33.1561 35.856H37.4399C38.031 35.856 38.5108 36.3358 38.5108 36.9269C38.5108 37.5181 38.031 37.9979 37.4399 37.9979ZM54.5747 50.849H41.7236C41.1324 50.849 40.6526 50.3692 40.6526 49.778C40.6526 49.1869 41.1324 48.7071 41.7236 48.7071H54.5747C55.1658 48.7071 55.6456 49.1869 55.6456 49.778C55.6456 50.3692 55.1658 50.849 54.5747 50.849ZM54.5747 46.5653H41.7236C41.1324 46.5653 40.6526 46.0855 40.6526 45.4943C40.6526 44.9032 41.1324 44.4234 41.7236 44.4234H54.5747C55.1658 44.4234 55.6456 44.9032 55.6456 45.4943C55.6456 46.0855 55.1658 46.5653 54.5747 46.5653ZM54.5747 42.2816H41.7236C41.1324 42.2816 40.6526 41.8018 40.6526 41.2106C40.6526 40.6195 41.1324 40.1397 41.7236 40.1397H54.5747C55.1658 40.1397 55.6456 40.6195 55.6456 41.2106C55.6456 41.8018 55.1658 42.2816 54.5747 42.2816ZM55.6456 36.9269C55.6456 37.5181 55.1658 37.9979 54.5747 37.9979H41.7236C41.1324 37.9979 40.6526 37.5181 40.6526 36.9269C40.6526 36.3358 41.1324 35.856 41.7236 35.856H54.5747C55.1658 35.856 55.6456 36.3358 55.6456 36.9269ZM27.8015 3.72815C30.9854 3.72815 33.6265 6.04389 34.1366 9.08281H31.9488C31.7592 8.34783 31.3768 7.66968 30.8311 7.12414C30.0279 6.32089 28.9377 5.87006 27.8015 5.87006C25.4358 5.87006 23.5178 7.78811 23.5178 10.1538C23.5178 12.5194 25.4358 14.4375 27.8015 14.4375C29.7973 14.4375 31.4746 13.0722 31.9502 11.2247H34.1356C33.6235 14.2623 30.9843 16.5765 27.8015 16.5794C24.2524 16.5794 21.3759 13.7028 21.3759 10.1538C21.3759 6.60468 24.2525 3.72815 27.8015 3.72815Z" fill="#6A0DAD"/>
<path d="M47.076 58.3454H36.3667C35.7756 58.3432 35.2979 57.8656 35.2958 57.2744H23.5156V58.3454C23.5188 59.5267 24.4763 60.4841 25.6575 60.4873H57.7853C58.9666 60.4841 59.924 59.5267 59.9273 58.3454V57.2744H48.1471C48.1448 57.8656 47.6672 58.3432 47.076 58.3454Z" fill="#6A0DAD"/>
<path d="M23.5172 32.6423C23.5225 30.87 24.9576 29.435 26.7299 29.4296H32.7057C30.4031 23.8618 24.2025 20.874 19.137 18.4322C18.4944 18.1323 17.8732 17.8324 17.2842 17.5433C11.7049 14.759 11.0302 6.43784 11.0088 2.88232C9.83828 3.38784 8.7759 4.11603 7.88175 5.02423C6.60837 6.36397 5.62737 7.95426 5.00093 9.69347C4.70641 10.5406 4.46658 11.407 4.28346 12.2851L4.2513 12.403C4.05638 13.1644 3.78331 13.9033 3.43745 14.6091C3.28757 14.9411 3.13757 15.2731 2.99841 15.6157C2.9417 15.7604 2.90524 15.9113 2.8913 16.0655C2.91275 16.2047 3.24468 16.5045 3.48034 16.7294C4.21174 17.25 4.6808 18.0627 4.76551 18.957C4.75693 19.3896 4.6391 19.8138 4.42286 20.1886C3.3905 22.3432 2.12571 24.3791 0.653248 26.2607L0.589031 26.3356C0.364094 26.6012 0.167035 26.8882 0 27.1924C0.0963848 27.278 0.23566 27.3851 0.321322 27.4494C0.528031 27.5917 0.746535 27.7171 0.97457 27.8242C1.7242 28.199 2.75227 28.7238 2.95576 29.8483C3.09504 30.5165 3.01247 31.2127 2.7201 31.8294C2.58082 32.1186 2.43095 32.3756 2.30239 32.6005C2.30025 32.6166 2.29274 32.6316 2.28095 32.6434C2.55938 32.8576 2.8807 33.1039 3.0948 33.2539C3.32617 33.4274 3.48034 33.6854 3.52323 33.9714C3.56183 34.2605 3.48463 34.5529 3.30901 34.7852C3.24372 34.8612 3.18582 34.9437 3.13769 35.0315C3.90019 35.3698 4.4785 36.0221 4.72262 36.8199C4.85224 37.4336 4.82651 38.0707 4.64768 38.6726C4.61551 38.8332 4.57274 38.994 4.55129 39.1546C4.5084 39.6022 4.57059 40.0531 4.73334 40.4718C4.87893 41.1047 5.49798 41.5106 6.13622 41.3927C7.14284 41.1893 8.44945 40.8144 9.72378 40.4182C11.0088 40.0219 12.2512 39.6043 13.1186 39.2937H13.1293L14.8642 38.694C15.6888 38.4155 16.31 38.1906 16.5991 38.1049C17.6851 37.8008 18.71 37.3113 19.6298 36.6592C19.9287 36.4172 20.3335 36.3529 20.6922 36.49C21.051 36.6271 21.3091 36.9473 21.368 37.3264C21.4268 37.7065 21.2791 38.0889 20.9792 38.3288C19.8462 39.1512 18.5782 39.7681 17.231 40.1494C16.9632 40.2351 16.4277 40.4171 15.7102 40.6742C16.9043 42.0803 17.7878 43.7221 18.3019 45.4933L23.5173 45.4719L23.5172 32.6423Z" fill="#6A0DAD"/>
</g>
<defs>
<clipPath id="clip0_2997_275">
<rect width="61" height="61" fill="white"/>
</clipPath>
</defs>
</svg>
