<svg width="56" height="56" viewBox="0 0 56 56" fill="none" xmlns="http://www.w3.org/2000/svg">
<path fill-rule="evenodd" clip-rule="evenodd" d="M31.8414 32.5466H37.7423C37.7459 32.9236 37.7477 33.2661 37.7477 33.3815C37.7477 38.6088 33.4819 42.8745 28.2547 42.8745C23.0252 42.8745 18.7617 38.6088 18.7617 33.3815C18.7617 33.2661 18.7634 32.9236 18.7671 32.5466H24.9053C24.8589 32.5033 24.8157 32.456 24.7767 32.4048C24.5944 32.166 24.5143 31.8645 24.5543 31.5666L25.4133 25.1588V21.5231L23.3832 23.5296C23.0108 23.8978 22.4102 23.8944 22.0421 23.5218L22.0132 23.4926C21.645 23.1202 21.6485 22.5197 22.021 22.1515L24.4089 19.7912C25.0525 19.1551 25.9208 18.7984 26.8256 18.7984H31.6275L34.257 16.1993V2.03132C34.257 1.60715 34.6014 1.2627 35.0256 1.2627C35.4498 1.2627 35.7942 1.60715 35.7942 2.03132V2.28991C37.9779 3.07117 39.9113 4.17085 41.6044 5.57634C41.7612 5.70921 41.8303 5.9186 41.7835 6.11866C41.7366 6.31873 41.5816 6.47564 41.3822 6.52494C39.3803 7.02553 37.503 8.04254 35.7942 9.75735V16.1888C36.1047 16.5632 36.0826 17.1195 35.7301 17.4678L31.3334 21.8137V25.1588L32.1925 31.5666C32.2324 31.8645 32.1524 32.166 31.97 32.4048C31.9309 32.456 31.8879 32.5033 31.8414 32.5466ZM26.6654 32.5466H30.0792C29.9392 32.4078 29.834 32.2309 29.7813 32.0281L28.3668 26.5905L28.3663 26.5907L26.964 32.0257C26.9114 32.2296 26.8059 32.4073 26.6654 32.5466ZM9.52926 32.5466C9.48281 32.5033 9.43966 32.456 9.40068 32.4048C9.2183 32.166 9.13825 31.8645 9.17822 31.5666L10.0372 25.1588V21.5231L8.00716 23.5296C7.6347 23.8978 7.03419 23.8944 6.66601 23.5218L6.63713 23.4926C6.26896 23.1202 6.27248 22.5197 6.64493 22.1515L9.03284 19.7912C9.6764 19.1551 10.5447 18.7984 11.4495 18.7984H14.545C15.4499 18.7984 16.3182 19.1551 16.9618 19.7912L19.3497 22.1515C19.7221 22.5197 19.7257 23.1202 19.3575 23.4926L19.3286 23.5218C18.9604 23.8944 18.3599 23.8978 17.9875 23.5296L15.9573 21.5231V25.1588L16.8164 31.5666C16.8564 31.8645 16.7763 32.166 16.5939 32.4048C16.5548 32.456 16.5118 32.5033 16.4654 32.5466H17.2308C17.2266 32.9262 17.2244 33.2643 17.2244 33.3815C17.2244 39.4552 22.1783 44.4118 28.2547 44.4118C34.3284 44.4118 39.2849 39.4552 39.2849 33.3815C39.2849 33.2643 39.2827 32.9262 39.2785 32.5466H39.531C39.4845 32.5033 39.4415 32.456 39.4024 32.4048C39.22 32.166 39.14 31.8645 39.1799 31.5666L40.039 25.1588V21.5231L38.0089 23.5296C37.6364 23.8978 37.0359 23.8944 36.6677 23.5218L36.6389 23.4926C36.2707 23.1202 36.2742 22.5197 36.6467 22.1515L39.0346 19.7912C39.6781 19.1551 40.5465 18.7984 41.4513 18.7984H44.5468C45.4516 18.7984 46.3199 19.1551 46.9635 19.7912L49.3514 22.1515C49.7239 22.5197 49.7274 23.1202 49.3592 23.4926L49.3303 23.5218C48.9622 23.8944 48.3616 23.8978 47.9892 23.5296L45.9591 21.5231V25.1588L46.8181 31.5666C46.8581 31.8645 46.778 32.166 46.5957 32.4048C46.5567 32.456 46.5135 32.5033 46.4671 32.5466H49.6103V35.5157C49.6103 36.29 48.9847 36.9181 48.2078 36.9181C44.0028 36.9181 41.8914 42.0137 44.8655 44.9877C45.4129 45.5351 45.4129 46.4255 44.8655 46.9729L41.846 49.9924C41.2986 50.5397 40.4082 50.5397 39.8607 49.9924C36.8867 47.0183 31.7912 49.1296 31.7912 53.3347C31.7912 54.1117 31.1632 54.7372 30.3887 54.7372H26.1181C25.3437 54.7372 24.7156 54.1117 24.7156 53.3347C24.7156 49.1246 19.6227 47.0158 16.6461 49.9924C16.0987 50.5397 15.2107 50.5397 14.6634 49.9924L11.6414 46.9729C11.0941 46.4255 11.0941 45.5351 11.6414 44.9877C14.6155 42.0137 12.5066 36.9181 8.29913 36.9181C7.52468 36.9181 6.8966 36.29 6.8966 35.5157V32.5466H9.52926ZM14.7031 32.5466C14.5631 32.4078 14.4579 32.2309 14.4052 32.0281L12.9907 26.5905L12.9903 26.5907L11.588 32.0257C11.5354 32.2296 11.4299 32.4073 11.2893 32.5466H14.7031ZM41.291 32.5466H44.7048C44.5648 32.4078 44.4598 32.2309 44.4069 32.0281L42.9926 26.5905L42.9921 26.5907L41.5897 32.0257C41.5371 32.2296 41.4316 32.4073 41.291 32.5466ZM12.9973 13.0117C14.3247 13.0117 15.4023 14.0894 15.4023 15.4169C15.4023 16.7442 14.3247 17.8219 12.9973 17.8219C11.6699 17.8219 10.5922 16.7442 10.5922 15.4169C10.5922 14.0894 11.6699 13.0117 12.9973 13.0117ZM42.999 13.0117C44.3265 13.0117 45.4042 14.0894 45.4042 15.4169C45.4042 16.7442 44.3265 17.8219 42.999 17.8219C41.6716 17.8219 40.594 16.7442 40.594 15.4169C40.594 14.0894 41.6716 13.0117 42.999 13.0117ZM28.3734 13.0117C29.7008 13.0117 30.7784 14.0894 30.7784 15.4169C30.7784 16.7442 29.7008 17.8219 28.3734 17.8219C27.0459 17.8219 25.9682 16.7442 25.9682 15.4169C25.9682 14.0894 27.0459 13.0117 28.3734 13.0117Z" fill="#D5D5D5"/>
</svg>
