<svg width="51" height="51" viewBox="0 0 51 51" fill="none" xmlns="http://www.w3.org/2000/svg">
<path d="M46.416 41.9355C47.2412 41.9355 47.9102 41.2666 47.9102 40.4414C47.9102 39.6162 47.2412 38.9473 46.416 38.9473C45.5908 38.9473 44.9219 39.6162 44.9219 40.4414C44.9219 41.2666 45.5908 41.9355 46.416 41.9355Z" fill="#D5D5D5"/>
<path d="M37.9492 48.9082C38.4993 48.9082 38.9453 48.4622 38.9453 47.9121C38.9453 47.362 38.4993 46.916 37.9492 46.916C37.3991 46.916 36.9531 47.362 36.9531 47.9121C36.9531 48.4622 37.3991 48.9082 37.9492 48.9082Z" fill="#D5D5D5"/>
<path d="M26.9922 40.9395C27.5423 40.9395 27.9883 40.4935 27.9883 39.9434C27.9883 39.3932 27.5423 38.9473 26.9922 38.9473C26.4421 38.9473 25.9961 39.3932 25.9961 39.9434C25.9961 40.4935 26.4421 40.9395 26.9922 40.9395Z" fill="#D5D5D5"/>
<path d="M25 12.0527C25.5501 12.0527 25.9961 11.6068 25.9961 11.0566C25.9961 10.5065 25.5501 10.0605 25 10.0605C24.4499 10.0605 24.0039 10.5065 24.0039 11.0566C24.0039 11.6068 24.4499 12.0527 25 12.0527Z" fill="#D5D5D5"/>
<path d="M17.5293 8.06836C18.3545 8.06836 19.0234 7.39941 19.0234 6.57422C19.0234 5.74903 18.3545 5.08008 17.5293 5.08008C16.7041 5.08008 16.0352 5.74903 16.0352 6.57422C16.0352 7.39941 16.7041 8.06836 17.5293 8.06836Z" fill="#D5D5D5"/>
<path d="M5.07812 8.06836C5.62825 8.06836 6.07422 7.62239 6.07422 7.07227C6.07422 6.52214 5.62825 6.07617 5.07812 6.07617C4.528 6.07617 4.08203 6.52214 4.08203 7.07227C4.08203 7.62239 4.528 8.06836 5.07812 8.06836Z" fill="#D5D5D5"/>
<path d="M45.2267 1.0957H33.66C31.0819 1.0957 28.9844 3.19318 28.9844 5.77127V18.0293H28.31C25.9356 18.0293 24.0039 19.961 24.0039 22.3353V30.6567C24.0039 31.8234 23.1358 32.7906 22.0117 32.9478V20.7127C22.0117 18.1346 19.9142 16.0371 17.3361 16.0371H5.76941C3.19122 16.0371 1.09375 18.1346 1.09375 20.7127V45.2285C1.09375 47.8067 3.19122 49.9043 5.76941 49.9043H17.3361C19.9142 49.9043 22.0117 47.8067 22.0117 45.2286V34.9496C24.2363 34.7844 25.9961 32.9228 25.9961 30.6568V22.3354C25.9961 21.0595 27.0341 20.0215 28.31 20.0215H28.9844V30.2872C28.9844 32.8654 31.0819 34.9629 33.66 34.9629H45.2267C47.8049 34.9629 49.9023 32.8653 49.9023 30.2872V5.77127C49.9023 3.19318 47.8048 1.0957 45.2267 1.0957ZM14.913 32.9707C14.4695 31.2542 12.9078 29.9824 11.0547 29.9824C8.8577 29.9824 7.07031 31.7698 7.07031 33.9668C7.07031 36.1638 8.8577 37.9512 11.0547 37.9512C12.9078 37.9512 14.4695 36.6794 14.913 34.9629H20.0195V41.9355H3.08594V24.0059H20.0195V32.9707H14.913ZM38.241 21.7219C38.4355 21.9164 38.6903 22.0137 38.9453 22.0137C39.2003 22.0137 39.4551 21.9164 39.6497 21.7219L41.6418 19.7297C41.6462 19.7253 41.6499 19.7205 41.6542 19.716C41.6726 19.697 41.6906 19.6775 41.7075 19.6571C41.7183 19.644 41.7278 19.6301 41.7379 19.6165C41.7471 19.604 41.7568 19.5918 41.7656 19.5789C41.7759 19.5635 41.7849 19.5475 41.7942 19.5316C41.8014 19.5195 41.809 19.5077 41.8157 19.4953C41.8241 19.4795 41.8314 19.4633 41.839 19.447C41.8452 19.4337 41.8519 19.4205 41.8576 19.4069C41.8641 19.3914 41.8692 19.3755 41.8749 19.3597C41.8802 19.3447 41.886 19.3301 41.8906 19.3149C41.8953 19.299 41.8989 19.2829 41.9029 19.2669C41.9068 19.2514 41.9112 19.2362 41.9143 19.2203C41.918 19.2017 41.9202 19.183 41.9228 19.1642C41.9247 19.1508 41.9273 19.1376 41.9286 19.124C41.9351 19.0585 41.9351 18.9924 41.9286 18.9269C41.9273 18.9132 41.9247 18.9001 41.9228 18.8866C41.9202 18.8679 41.918 18.8491 41.9143 18.8306C41.9112 18.8147 41.9068 18.7995 41.9029 18.7839C41.8989 18.7679 41.8953 18.7519 41.8906 18.736C41.886 18.7208 41.8802 18.7061 41.8749 18.6913C41.8692 18.6755 41.8641 18.6595 41.8576 18.6439C41.8519 18.6302 41.8452 18.6172 41.8391 18.6039C41.8315 18.5877 41.8242 18.5714 41.8158 18.5555C41.8091 18.5431 41.8015 18.5313 41.7943 18.5193C41.785 18.5034 41.7759 18.4874 41.7657 18.472C41.757 18.459 41.7472 18.4469 41.738 18.4344C41.7279 18.4209 41.7184 18.407 41.7076 18.3938C41.6907 18.3732 41.6727 18.3539 41.6543 18.3349C41.65 18.3304 41.6463 18.3255 41.6419 18.3212L39.6497 16.329C39.2607 15.9401 38.6301 15.9401 38.241 16.329C37.852 16.7179 37.852 17.3487 38.241 17.7377L38.5327 18.0295H30.9766V9.06445H47.9102V26.9941H30.9766V20.0215H38.5326L38.2409 20.3132C37.8519 20.7022 37.8519 21.3329 38.241 21.7219Z" fill="#D5D5D5"/>
</svg>
