<svg width="42" height="42" viewBox="0 0 42 42" fill="none" xmlns="http://www.w3.org/2000/svg">
<path d="M37.4062 1.3125H4.59375C3.72351 1.3125 2.88891 1.6582 2.27356 2.27356C1.6582 2.88891 1.3125 3.72351 1.3125 4.59375V28.2188C1.3125 28.6497 1.39737 29.0763 1.56227 29.4744C1.72717 29.8725 1.96886 30.2343 2.27356 30.5389C2.57825 30.8436 2.93997 31.0853 3.33807 31.2502C3.73617 31.4151 4.16285 31.5 4.59375 31.5H15.0216L14.4966 36.75H13.7812C13.2591 36.75 12.7583 36.9574 12.3891 37.3266C12.0199 37.6958 11.8125 38.1966 11.8125 38.7188C11.8125 39.2409 12.0199 39.7417 12.3891 40.1109C12.7583 40.4801 13.2591 40.6875 13.7812 40.6875H28.2188C28.7409 40.6875 29.2417 40.4801 29.6109 40.1109C29.9801 39.7417 30.1875 39.2409 30.1875 38.7188C30.1875 38.1966 29.9801 37.6958 29.6109 37.3266C29.2417 36.9574 28.7409 36.75 28.2188 36.75H27.5034L26.9784 31.5H37.4062C37.8372 31.5 38.2638 31.4151 38.6619 31.2502C39.06 31.0853 39.4218 30.8436 39.7264 30.5389C40.0311 30.2343 40.2728 29.8725 40.4377 29.4744C40.6026 29.0763 40.6875 28.6497 40.6875 28.2188V4.59375C40.6875 3.72351 40.3418 2.88891 39.7264 2.27356C39.1111 1.6582 38.2765 1.3125 37.4062 1.3125ZM15.8222 36.75L16.3472 31.5H25.6528L26.1778 36.75H15.8222ZM36.75 28.875H35.4375V27.5625H36.75V28.875ZM39.375 24.9375H2.625V4.59375C2.62656 4.07208 2.83448 3.57223 3.20335 3.20335C3.57223 2.83448 4.07208 2.62656 4.59375 2.625H37.4062C37.9279 2.62656 38.4278 2.83448 38.7966 3.20335C39.1655 3.57223 39.3734 4.07208 39.375 4.59375V24.9375Z" fill="#D5D5D5"/>
<path d="M36.0949 11.8125H30.8843L28.5349 11.5172C28.3837 11.0102 28.1814 10.5199 27.9312 10.0538L29.4077 8.15063C29.5051 8.02426 29.5535 7.86691 29.5438 7.70766C29.5342 7.54841 29.4672 7.39805 29.3552 7.28438L27.4981 5.42719C27.3844 5.31525 27.234 5.24825 27.0748 5.2386C26.9155 5.22895 26.7582 5.27729 26.6318 5.37469L24.7287 6.85125C24.2625 6.60103 23.7722 6.39874 23.2652 6.2475L22.9634 3.85875C22.9442 3.69981 22.8675 3.55337 22.7478 3.44701C22.6282 3.34065 22.4738 3.28169 22.3137 3.28125H19.6887C19.5286 3.28169 19.3742 3.34065 19.2545 3.44701C19.1349 3.55337 19.0582 3.69981 19.039 3.85875L18.7371 6.2475C18.2301 6.39874 17.7398 6.60103 17.2737 6.85125L15.3706 5.37469C15.2442 5.27729 15.0868 5.22895 14.9276 5.2386C14.7683 5.24825 14.618 5.31525 14.5043 5.42719L12.6471 7.28438C12.5352 7.39805 12.4682 7.54841 12.4585 7.70766C12.4489 7.86691 12.4972 8.02426 12.5946 8.15063L14.0712 10.0538C13.821 10.5199 13.6187 11.0102 13.4674 11.5172L11.1181 11.8125H8.53243C8.46126 11.8138 8.3906 11.8248 8.32243 11.8453L4.38493 13.1578C4.25363 13.201 4.13932 13.2845 4.05827 13.3964C3.97723 13.5084 3.93359 13.643 3.93359 13.7812C3.93359 13.9195 3.97723 14.0541 4.05827 14.1661C4.13932 14.278 4.25363 14.3615 4.38493 14.4047L8.32243 15.7172C8.3906 15.7377 8.46126 15.7487 8.53243 15.75H11.1181L13.4674 16.0453C13.6187 16.5523 13.821 17.0426 14.0712 17.5087L12.5946 19.4119C12.4972 19.5382 12.4489 19.6956 12.4585 19.8548C12.4682 20.0141 12.5352 20.1644 12.6471 20.2781L14.5043 22.1353C14.618 22.2473 14.7683 22.3142 14.9276 22.3239C15.0868 22.3335 15.2442 22.2852 15.3706 22.1878L17.2737 20.7113C17.7398 20.9615 18.2301 21.1638 18.7371 21.315L19.039 23.7037C19.0582 23.8627 19.1349 24.0091 19.2545 24.1155C19.3742 24.2219 19.5286 24.2808 19.6887 24.2812H22.3137C22.4738 24.2808 22.6282 24.2219 22.7478 24.1155C22.8675 24.0091 22.9442 23.8627 22.9634 23.7037L23.2652 21.315C23.7722 21.1638 24.2625 20.9615 24.7287 20.7113L26.6318 22.1878C26.7582 22.2852 26.9155 22.3335 27.0748 22.3239C27.234 22.3142 27.3844 22.2473 27.4981 22.1353L29.3552 20.2781C29.4672 20.1644 29.5342 20.0141 29.5438 19.8548C29.5535 19.6956 29.5051 19.5382 29.4077 19.4119L27.9312 17.5087C28.1814 17.0426 28.3837 16.5523 28.5349 16.0453L30.8843 15.75H36.0949C36.6171 15.75 37.1178 15.5426 37.487 15.1734C37.8563 14.8042 38.0637 14.3034 38.0637 13.7812C38.0621 13.2596 37.8542 12.7597 37.4853 12.3909C37.1164 12.022 36.6166 11.8141 36.0949 11.8125ZM8.53243 14.4047L6.66868 13.7812L8.53243 13.1578V14.4047ZM10.5012 14.4375H9.84493V13.125H10.5012V14.4375ZM21.0012 9.84375C21.6914 9.84118 22.37 10.0221 22.9673 10.3681C23.5646 10.714 24.0593 11.2125 24.4006 11.8125H17.6018C17.9431 11.2125 18.4377 10.714 19.0351 10.3681C19.6324 10.0221 20.3109 9.84118 21.0012 9.84375ZM21.0012 17.7188C20.3111 17.7205 19.6329 17.5392 19.0357 17.1933C18.4385 16.8475 17.9437 16.3494 17.6018 15.75H24.4006C24.0593 16.35 23.5646 16.8485 22.9673 17.1944C22.37 17.5404 21.6914 17.7213 21.0012 17.7188ZM30.8449 14.4375H17.1227C17.044 14.0035 17.044 13.559 17.1227 13.125H30.8449V14.4375ZM36.5477 14.2472C36.4896 14.3086 36.4193 14.3573 36.3414 14.39C36.2634 14.4228 36.1795 14.439 36.0949 14.4375H34.1262V13.125H36.0949C36.269 13.125 36.4359 13.1941 36.559 13.3172C36.682 13.4403 36.7512 13.6072 36.7512 13.7812C36.7519 13.8689 36.7342 13.9556 36.6992 14.0359C36.6641 14.1162 36.6125 14.1882 36.5477 14.2472Z" fill="#D5D5D5"/>
</svg>
