<svg width="71" height="71" viewBox="0 0 71 71" fill="none" xmlns="http://www.w3.org/2000/svg">
<path d="M28.6563 54.6836V62.4781C28.6555 62.6868 28.7175 62.8909 28.8341 63.0639C28.9507 63.2369 29.1166 63.3709 29.3103 63.4486L39.4253 67.5937C39.586 67.6556 39.7593 67.6778 39.9305 67.6584C40.1017 67.639 40.2657 67.5787 40.4085 67.4824C40.5514 67.3861 40.6689 67.2568 40.7511 67.1054C40.8333 66.954 40.8778 66.785 40.8808 66.6128L40.8808 54.6836C39.5176 54.6855 28.6563 54.6836 28.6563 54.6836Z" fill="#6A0DAD"/>
<path d="M58.4085 26.332H12.5902C12.0075 26.332 11.5352 26.8044 11.5352 27.387V32.2916C11.5352 32.8743 12.0075 33.3466 12.5902 33.3466H58.4085C58.9911 33.3466 59.4635 32.8743 59.4635 32.2916V27.387C59.4635 26.8044 58.9911 26.332 58.4085 26.332Z" fill="#6A0DAD"/>
<path d="M34.318 12.4834V24.3809C34.2882 24.5362 34.2931 24.6962 34.3323 24.8495C34.3715 25.0027 34.4441 25.1454 34.5449 25.2673C34.6456 25.3893 34.7721 25.4874 34.9152 25.5548C35.0583 25.6222 35.2146 25.6572 35.3727 25.6572C35.5309 25.6572 35.6871 25.6222 35.8303 25.5548C35.9734 25.4874 36.0998 25.3893 36.2006 25.2673C36.3014 25.1454 36.3739 25.0027 36.4132 24.8495C36.4524 24.6962 36.4573 24.5362 36.4275 24.3809L36.4275 12.4834C37.536 12.2245 38.5105 11.5672 39.1657 10.6364C39.8209 9.70561 40.111 8.56641 39.9807 7.43564C39.8504 6.30487 39.3089 5.26148 38.4592 4.50407C37.6095 3.74666 36.511 3.32812 35.3728 3.32812C34.2345 3.32813 33.136 3.74666 32.2863 4.50407C31.4367 5.26148 30.8951 6.30487 30.7649 7.43564C30.6346 8.56641 30.9247 9.70561 31.5798 10.6364C32.235 11.5672 33.2096 12.2245 34.318 12.4834Z" fill="#6A0DAD"/>
<path d="M20.5016 14.582V18.4423C20.5016 19.0046 20.725 19.5438 21.1226 19.9414C21.5202 20.339 22.0594 20.5623 22.6216 20.5624L25.7648 20.5729V24.3806C25.7374 24.5252 25.7402 24.6739 25.7732 24.8174C25.8062 24.9608 25.8685 25.0958 25.9563 25.214C26.0442 25.3321 26.1555 25.4307 26.2834 25.5036C26.4113 25.5765 26.5529 25.622 26.6992 25.6374C26.8456 25.6528 26.9936 25.6376 27.1338 25.5929C27.274 25.5482 27.4035 25.4748 27.5139 25.3775C27.6243 25.2802 27.7134 25.1611 27.7754 25.0276C27.8375 24.8942 27.8712 24.7493 27.8744 24.6021V20.5729C27.8725 20.0112 27.6486 19.473 27.2514 19.0758C26.8542 18.6786 26.316 18.4547 25.7543 18.4529L22.6111 18.4423V14.582C23.7196 14.3232 24.6941 13.6658 25.3493 12.735C26.0045 11.8042 26.2945 10.665 26.1643 9.53427C26.034 8.4035 25.4925 7.36011 24.6428 6.6027C23.7931 5.84529 22.6946 5.42676 21.5564 5.42676C20.4181 5.42676 19.3196 5.84529 18.4699 6.6027C17.6202 7.36011 17.0787 8.4035 16.9485 9.53427C16.8182 10.665 17.1082 11.8042 17.7634 12.735C18.4186 13.6658 19.3932 14.3232 20.5016 14.582Z" fill="#6A0DAD"/>
<path d="M43.9172 25.6569C44.0744 25.6538 44.2291 25.6169 44.3706 25.5485C44.5122 25.4802 44.6374 25.382 44.7375 25.2608C44.8377 25.1397 44.9105 24.9983 44.9509 24.8463C44.9914 24.6944 44.9985 24.5355 44.9719 24.3806L44.993 20.5624H48.1151C48.6785 20.5628 49.219 20.3399 49.6184 19.9425C50.0177 19.5451 50.2433 19.0057 50.2457 18.4424V14.582C51.3541 14.3232 52.3287 13.6658 52.9839 12.7351C53.6391 11.8043 53.9292 10.6651 53.7989 9.53431C53.6686 8.40353 53.1271 7.36013 52.2775 6.60272C51.4278 5.8453 50.3293 5.42676 49.191 5.42676C48.0527 5.42676 46.9542 5.8453 46.1046 6.60272C45.2549 7.36013 44.7134 8.40353 44.5831 9.53431C44.4528 10.6651 44.7429 11.8043 45.3981 12.7351C46.0533 13.6658 47.0279 14.3232 48.1363 14.582L48.1151 18.4529H44.9931C44.4303 18.4543 43.8908 18.6778 43.4918 19.0748C43.0929 19.4718 42.8667 20.0101 42.8625 20.5729V24.3806C42.8368 24.5354 42.8446 24.6939 42.8854 24.8455C42.9262 24.9971 42.999 25.1381 43.099 25.2591C43.199 25.3801 43.3237 25.4782 43.4649 25.5468C43.6061 25.6154 43.7603 25.653 43.9172 25.6569Z" fill="#6A0DAD"/>
<path d="M27.5473 52.5746C27.5473 52.5746 40.2273 52.5744 42.0923 52.5746L56.6479 35.2979H14.0781L27.5473 52.5746Z" fill="#6A0DAD"/>
</svg>
