<svg width="54" height="54" viewBox="0 0 54 54" fill="none" xmlns="http://www.w3.org/2000/svg">
<path d="M34.5938 41.7066L31.2188 40.7109V37.6734C33.5391 36.3234 35.1591 33.9187 35.4037 31.1091C36.8719 30.7462 37.9688 29.4216 37.9688 27.8438V23.5069C37.9688 18.9169 34.2394 15.1875 29.6494 15.1875H24.3169C19.7437 15.1875 16.0312 18.9 16.0312 23.4731V27.8438C16.0312 29.4216 17.1281 30.7462 18.5963 31.1091C18.8409 33.9187 20.4609 36.3234 22.7812 37.6734V40.7109L19.4147 41.7066C16.4278 42.5419 14.3438 45.3516 14.3438 48.5325V49.7812C14.3438 51.1734 15.4828 52.3125 16.875 52.3125H37.125C38.5172 52.3125 39.6562 51.1734 39.6562 49.7812V48.5325C39.6562 45.3431 37.5722 42.5334 34.5938 41.7066ZM29.5312 41.3438C29.5312 42.7359 28.3922 43.875 27 43.875C25.6078 43.875 24.4688 42.7359 24.4688 41.3438V38.4244C25.2703 38.6775 26.1225 38.8125 27 38.8125C27.8775 38.8125 28.7297 38.6775 29.5312 38.4244V41.3438ZM20.25 30.375V26.5528C20.25 26.3334 20.4356 26.1562 20.6803 26.1562C21.5241 26.1562 22.4691 25.8356 23.3381 25.245C23.8106 24.9328 24.2409 24.5531 24.5953 24.1397L25.6922 25.2112C26.3166 25.8187 27.135 26.1562 28.0041 26.1562H33.345C33.5644 26.1562 33.75 26.3419 33.75 26.5612V30.375C33.75 34.0959 30.7209 37.125 27 37.125C23.2791 37.125 20.25 34.0959 20.25 30.375Z" fill="#D5D5D5"/>
<path d="M48.6675 22.8403C47.2247 13.3312 39.825 5.93156 30.3159 4.48875C30.0459 2.9025 28.6622 1.6875 27 1.6875C25.3378 1.6875 23.9541 2.9025 23.6841 4.48875C14.175 5.93156 6.77531 13.3312 5.3325 22.8403C3.74625 23.1103 2.53125 24.4941 2.53125 26.1562C2.53125 27.8184 3.73781 29.1937 5.31563 29.4722C6.13406 34.9228 8.94375 39.7997 13.2806 43.2759C13.4325 43.4025 13.6266 43.4616 13.8038 43.4616C14.0484 43.4616 14.2931 43.3519 14.4619 43.1409C14.7572 42.7781 14.6981 42.2466 14.3353 41.9512C10.3612 38.7703 7.79625 34.2984 7.02 29.3203C8.32781 28.8562 9.28125 27.6159 9.28125 26.1478C9.28125 24.6797 8.32781 23.4394 7.02 22.9753C8.37844 14.2847 15.1453 7.52625 23.8275 6.16781C24.2916 7.48406 25.5319 8.42906 27 8.42906C28.4681 8.42906 29.7084 7.47562 30.1725 6.16781C38.8631 7.52625 45.6216 14.2931 46.98 22.9753C45.6637 23.4394 44.7188 24.6797 44.7188 26.1478C44.7188 27.6159 45.6637 28.8562 46.98 29.3203C46.2038 34.2984 43.6387 38.7703 39.6647 41.9512C39.3019 42.2466 39.2428 42.7697 39.5381 43.1409C39.7069 43.3519 39.9516 43.4616 40.1963 43.4616C40.3819 43.4616 40.5675 43.4025 40.7194 43.2759C45.0562 39.7997 47.8659 34.9144 48.6844 29.4722C50.2622 29.1937 51.4688 27.8184 51.4688 26.1562C51.4688 24.4941 50.2537 23.1103 48.6675 22.8403ZM7.59375 26.1562C7.59375 27.0844 6.83437 27.8437 5.90625 27.8437C4.97813 27.8437 4.21875 27.0844 4.21875 26.1562C4.21875 25.2281 4.97813 24.4687 5.90625 24.4687C6.83437 24.4687 7.59375 25.2281 7.59375 26.1562ZM27 6.75C26.0719 6.75 25.3125 5.99062 25.3125 5.0625C25.3125 4.13437 26.0719 3.375 27 3.375C27.9281 3.375 28.6875 4.13437 28.6875 5.0625C28.6875 5.99062 27.9281 6.75 27 6.75ZM48.0938 27.8437C47.1656 27.8437 46.4062 27.0844 46.4062 26.1562C46.4062 25.2281 47.1656 24.4687 48.0938 24.4687C49.0219 24.4687 49.7812 25.2281 49.7812 26.1562C49.7812 27.0844 49.0219 27.8437 48.0938 27.8437Z" fill="#D5D5D5"/>
</svg>
