<svg width="63" height="63" viewBox="0 0 63 63" fill="none" xmlns="http://www.w3.org/2000/svg">
<path fill-rule="evenodd" clip-rule="evenodd" d="M38.8297 22.9714C39.0543 28.0525 36.4185 32.8283 31.976 35.3358C31.671 35.508 31.3254 35.508 31.0202 35.3358C26.5777 32.8283 23.9419 28.0525 24.1664 22.9714C24.1848 22.5539 24.3975 22.2038 24.7595 21.9949C28.9189 19.5942 34.0771 19.5942 38.2365 21.9949C38.5985 22.2037 38.8112 22.5539 38.8297 22.9714ZM34.9644 53.949H28.0317C27.9936 53.949 27.9607 53.9659 27.9384 53.997C27.9161 54.0282 27.9108 54.0647 27.923 54.1008C28.4298 55.5884 29.8388 56.6585 31.498 56.6585C33.1572 56.6585 34.5661 55.5884 35.073 54.1008C35.0853 54.0647 35.0799 54.0282 35.0576 53.997C35.0354 53.9659 35.0026 53.949 34.9644 53.949ZM34.1817 49.9352H25.6843C24.6932 49.9352 24.1735 51.3393 24.9191 52.1463C25.1186 52.3622 25.3898 52.4962 25.6843 52.4962H37.3116C38.3027 52.4962 38.8225 51.0921 38.0768 50.2851C37.8774 50.0692 37.6062 49.9352 37.3116 49.9352H34.1817ZM37.3116 45.943H25.6843C24.6931 45.943 24.1736 47.3474 24.9191 48.1542C25.2793 48.5439 25.6172 48.5041 26.0634 48.5041H37.3118C38.303 48.5041 38.8226 47.0999 38.077 46.293C37.8774 46.0769 37.6061 45.943 37.3116 45.943ZM46.0407 13.6278L43.9286 15.7398C43.5925 16.0759 43.5925 16.621 43.9286 16.9571C44.2648 17.2932 44.8098 17.2932 45.1459 16.9571L47.2579 14.845C47.5941 14.5089 47.5941 13.9639 47.2579 13.6278C46.9218 13.2916 46.3767 13.2916 46.0407 13.6278ZM30.6372 7.20214V10.1155C30.6372 10.5909 31.0226 10.9763 31.498 10.9763C31.9734 10.9763 32.3588 10.5909 32.3588 10.1155V7.20214C32.3588 6.72674 31.9734 6.34131 31.498 6.34131C31.0226 6.34131 30.6372 6.72674 30.6372 7.20214ZM19.0675 16.9571C19.4036 16.6209 19.4036 16.0758 19.0675 15.7398L16.9554 13.6278C16.6193 13.2916 16.0742 13.2916 15.7382 13.6278C15.402 13.9639 15.402 14.509 15.7382 14.845L17.8502 16.9571C18.1863 17.2932 18.7314 17.2932 19.0675 16.9571ZM31.9478 29.6208L35.054 25.859C35.3548 25.4931 35.3022 24.9525 34.9363 24.6518C34.5704 24.3509 34.0298 24.4035 33.7291 24.7694L31.2 27.8324C31.1603 27.8805 31.0891 27.8881 31.0402 27.8493L29.4346 26.5767C29.0632 26.2814 28.5226 26.3431 28.2274 26.7145C27.9322 27.0859 27.9938 27.6265 28.3652 27.9217L30.7188 29.787C31.1047 30.0933 31.6498 30.0104 31.9452 29.6241C31.946 29.623 31.9468 29.622 31.9478 29.6208ZM18.6902 25.0785C17.5455 32.538 23.0686 35.5267 25.3309 44.4199C25.3445 44.4741 25.394 44.5102 25.4499 44.5063L25.6804 44.4906C25.6832 44.4903 25.6855 44.4903 25.6883 44.4903H37.3076C37.3104 44.4903 37.3128 44.4905 37.3154 44.4906L37.546 44.5063C37.6018 44.5102 37.6512 44.4742 37.6649 44.4199C39.9276 35.5254 45.4498 32.5397 44.3056 25.0784C44.3003 25.0441 44.3092 25.0124 44.3317 24.986C44.3543 24.9597 44.3841 24.9461 44.4188 24.9461H52.3291C52.3671 24.9461 52.3999 24.9628 52.4221 24.9937C52.4444 25.0246 52.4499 25.0609 52.4379 25.097L47.5007 39.9953C47.443 40.1694 47.4429 40.2924 47.4726 40.4595C47.4729 40.461 47.4731 40.4622 47.4733 40.4637C47.6855 41.9871 48.4418 43.3334 49.5388 44.2989C51.9063 46.3831 55.4526 46.3831 57.8203 44.2989C58.9156 43.3348 59.6713 41.9909 59.8848 40.4704C59.885 40.4688 59.8853 40.4674 59.8855 40.4659C59.919 40.2817 59.9158 40.1562 59.8515 39.9744C59.8513 39.9736 59.851 39.973 59.8508 39.9722L54.5085 23.8519C54.508 23.8504 54.5076 23.849 54.5071 23.8475C54.4039 23.4878 54.0724 23.2246 53.6795 23.2246H43.9664C43.9155 23.2246 43.8724 23.1928 43.8571 23.1442C42.2024 17.8937 37.2949 14.0865 31.4977 14.0865C25.7006 14.0865 20.7932 17.8937 19.1384 23.1442C19.1231 23.1927 19.0799 23.2246 19.0292 23.2246H9.31632C8.92345 23.2246 8.59194 23.4878 8.48875 23.8475C8.48825 23.849 8.48787 23.8504 8.48736 23.8519L3.13753 39.9953C3.07982 40.1695 3.07969 40.2925 3.10956 40.4597C3.10981 40.4612 3.11006 40.4625 3.11019 40.464C3.32237 41.9871 4.07887 43.3334 5.17558 44.2989C7.54312 46.3831 11.0895 46.3831 13.4571 44.2989C14.5524 43.3348 15.3081 41.9909 15.5216 40.4704C15.5218 40.4688 15.5221 40.4675 15.5223 40.4659C15.5558 40.2813 15.5524 40.1559 15.488 39.9737C15.4878 39.973 15.4875 39.9723 15.4873 39.9716L10.5579 25.097C10.546 25.0609 10.5515 25.0246 10.5738 24.9937C10.5961 24.9628 10.6287 24.9461 10.6668 24.9461H18.5771C18.6117 24.9461 18.6416 24.9598 18.6641 24.9862C18.6867 25.0126 18.6956 25.0442 18.6902 25.0785ZM9.42531 27.1488L13.4407 39.2655C13.4526 39.3016 13.4471 39.3379 13.4248 39.3688C13.4025 39.3997 13.3699 39.4164 13.3318 39.4164H5.30095C5.2629 39.4164 5.23026 39.3997 5.20796 39.3688C5.18566 39.3379 5.18011 39.3016 5.19208 39.2655L9.20745 27.1488C9.22333 27.1011 9.26604 27.0702 9.31644 27.0702C9.36672 27.0702 9.40943 27.1011 9.42531 27.1488ZM49.5554 39.2655L53.5708 27.1488C53.5865 27.1011 53.6294 27.0702 53.6798 27.0702C53.7301 27.0702 53.7729 27.1011 53.7888 27.1488L57.8041 39.2655C57.8161 39.3016 57.8106 39.3379 57.7883 39.3688C57.766 39.3997 57.7333 39.4164 57.6953 39.4164H49.6644C49.6264 39.4164 49.5937 39.3997 49.5714 39.3688C49.549 39.3379 49.5435 39.3015 49.5554 39.2655Z" fill="#D5D5D5"/>
</svg>
