<svg width="50" height="50" viewBox="0 0 50 50" fill="none" xmlns="http://www.w3.org/2000/svg">
<path d="M27.6688 26.5625L26.3352 27.8961C26.1887 28.0426 25.99 28.125 25.7828 28.125H23.7625L21.8766 30.0109V32.8125C21.8765 33.0197 21.7942 33.2184 21.6477 33.3648L19.3633 35.6492C22.9869 37.0752 27.0162 37.0752 30.6398 35.6492L29.1367 34.1461C28.9902 33.9996 28.9079 33.8009 28.9078 33.5937V26.5625H27.6688Z" fill="#D5D5D5"/>
<path d="M37.6219 30.2666C39.2834 27.9946 40.2984 25.3148 40.5589 22.5121C40.8194 19.7094 40.3157 16.8885 39.1013 14.3491C37.8869 11.8098 36.0072 9.64689 33.662 8.09031C31.3168 6.53373 28.5937 5.64162 25.782 5.50879V9.05176L27.8969 11.1666C28.0434 11.3131 28.1257 11.5118 28.1258 11.7189V15.6252C28.1257 15.8324 28.0434 16.0311 27.8969 16.1775L25.3242 18.7502L27.668 21.0939H32.8133C33.0205 21.0939 33.2192 21.1763 33.3657 21.3228C33.5122 21.4693 33.5945 21.668 33.5945 21.8752V26.2393L37.6219 30.2666Z" fill="#D5D5D5"/>
<path d="M18.2719 7.0127L20.8633 9.6041C21.0098 9.75058 21.0921 9.94926 21.0922 10.1564V13.2814C21.0921 13.4886 21.0098 13.6873 20.8633 13.8338L17.9672 16.7299V19.9893L20.8633 22.8854C21.0098 23.0318 21.0921 23.2305 21.0922 23.4377V26.5627C21.0922 26.7699 21.0099 26.9686 20.8634 27.1151C20.7169 27.2616 20.5181 27.3439 20.3109 27.3439H14.3844L11.9922 29.7361C13.4673 31.9444 15.4774 33.7432 17.8352 34.965L20.3109 32.4893V29.6877C20.311 29.4805 20.3933 29.2818 20.5398 29.1354L22.8836 26.7916C23.0301 26.6451 23.2288 26.5627 23.4359 26.5627H25.4562L26.7898 25.2291C26.9363 25.0826 27.135 25.0002 27.3422 25.0002H29.6859C29.8931 25.0002 30.0919 25.0825 30.2384 25.229C30.3849 25.3755 30.4672 25.5742 30.4672 25.7814V33.2705L32.1617 34.965C33.85 34.0864 35.3647 32.9084 36.632 31.4885L32.257 27.1135C32.1115 26.9671 32.0297 26.7691 32.0297 26.5627V22.6564H27.3422C27.135 22.6564 26.9363 22.5741 26.7898 22.4275L23.6648 19.3025C23.5184 19.156 23.4361 18.9574 23.4361 18.7502C23.4361 18.543 23.5184 18.3444 23.6648 18.1979L26.5609 15.3018V12.0424L24.4461 9.92754C24.2996 9.78106 24.2172 9.58238 24.2172 9.3752V5.50879C22.155 5.60873 20.1336 6.12006 18.2719 7.0127Z" fill="#D5D5D5"/>
<path d="M9.375 21.0936C9.37419 23.6218 9.99103 26.1119 11.1719 28.3475L13.5094 26.01C13.582 25.9373 13.6682 25.8797 13.7631 25.8404C13.8581 25.8012 13.9598 25.781 14.0625 25.7811H19.5313V23.7607L16.6352 20.8646C16.4886 20.7182 16.4063 20.5195 16.4063 20.3123V16.4061C16.4063 16.1989 16.4886 16.0002 16.6352 15.8537L19.5313 12.9576V10.4795L16.8438 7.79199C14.565 9.18516 12.6818 11.1396 11.3742 13.4685C10.0665 15.7973 9.3782 18.4227 9.375 21.0936Z" fill="#D5D5D5"/>
<path d="M25 0.78125C19.6146 0.787247 14.4515 2.92923 10.6435 6.73727C6.83548 10.5453 4.6935 15.7084 4.6875 21.0938H6.25C6.25 16.1209 8.22544 11.3518 11.7417 7.8355C15.2581 4.31919 20.0272 2.34375 25 2.34375C29.9728 2.34375 34.7419 4.31919 38.2583 7.8355C41.7746 11.3518 43.75 16.1209 43.75 21.0938H45.3125C45.3065 15.7084 43.1645 10.5453 39.3565 6.73727C35.5484 2.92923 30.3854 0.787247 25 0.78125Z" fill="#D5D5D5"/>
<path d="M25.7813 43.8938V38.2617C25.5219 38.2734 25.2617 38.2813 25 38.2813C24.7383 38.2813 24.4781 38.2734 24.2188 38.2617V43.8938C23.6975 44.078 23.2582 44.4407 22.9784 44.9176C22.6987 45.3944 22.5965 45.9549 22.69 46.4998C22.7835 47.0447 23.0666 47.539 23.4893 47.8954C23.912 48.2518 24.4471 48.4472 25 48.4472C25.5529 48.4472 26.088 48.2518 26.5107 47.8954C26.9334 47.539 27.2165 47.0447 27.31 46.4998C27.4035 45.9549 27.3013 45.3944 27.0216 44.9176C26.7418 44.4407 26.3025 44.078 25.7813 43.8938Z" fill="#D5D5D5"/>
<path d="M34.375 43.7499C34.0268 43.7516 33.6834 43.8317 33.3703 43.9843L30.4688 41.0827V37.3843C29.9578 37.5562 29.437 37.7041 28.9062 37.828V41.4062C28.9063 41.6133 28.9886 41.812 29.1352 41.9585L32.2656 45.089C32.1131 45.402 32.033 45.7454 32.0312 46.0937C32.0312 46.5572 32.1687 47.0103 32.4262 47.3958C32.6838 47.7812 33.0498 48.0816 33.4781 48.259C33.9064 48.4364 34.3776 48.4828 34.8322 48.3924C35.2869 48.3019 35.7045 48.0787 36.0323 47.7509C36.3601 47.4232 36.5833 47.0055 36.6737 46.5509C36.7641 46.0963 36.7177 45.625 36.5403 45.1967C36.3629 44.7685 36.0625 44.4024 35.6771 44.1449C35.2917 43.8874 34.8386 43.7499 34.375 43.7499Z" fill="#D5D5D5"/>
<path d="M40.6234 38.2812C40.2752 38.283 39.9318 38.3631 39.6188 38.5156L35.6617 34.5586C35.2482 34.8862 34.8206 35.1951 34.3789 35.4852L38.5141 39.6203C38.3615 39.9334 38.2814 40.2768 38.2797 40.625C38.2797 41.0885 38.4171 41.5417 38.6747 41.9271C38.9322 42.3125 39.2983 42.6129 39.7265 42.7903C40.1548 42.9677 40.626 43.0141 41.0807 42.9237C41.5353 42.8333 41.9529 42.6101 42.2807 42.2823C42.6085 41.9545 42.8317 41.5369 42.9222 41.0822C43.0126 40.6276 42.9662 40.1564 42.7888 39.7281C42.6114 39.2998 42.311 38.9338 41.9256 38.6762C41.5401 38.4187 41.087 38.2812 40.6234 38.2812Z" fill="#D5D5D5"/>
<path d="M19.5313 41.0827L16.6297 43.9843C16.3166 43.8317 15.9732 43.7516 15.625 43.7499C15.1615 43.7499 14.7083 43.8874 14.3229 44.1449C13.9375 44.4024 13.6371 44.7685 13.4597 45.1967C13.2823 45.625 13.2359 46.0963 13.3263 46.5509C13.4167 47.0055 13.6399 47.4232 13.9677 47.7509C14.2955 48.0787 14.7131 48.3019 15.1678 48.3924C15.6224 48.4828 16.0937 48.4364 16.5219 48.259C16.9502 48.0816 17.3162 47.7812 17.5738 47.3958C17.8313 47.0103 17.9688 46.5572 17.9688 46.0937C17.967 45.7454 17.8869 45.402 17.7344 45.089L20.8648 41.9585C21.0114 41.812 21.0937 41.6133 21.0938 41.4062V37.828C20.5635 37.7035 20.0427 37.5556 19.5313 37.3843V41.0827Z" fill="#D5D5D5"/>
<path d="M15.6195 35.4852C15.1773 35.1951 14.7497 34.8862 14.3367 34.5586L10.3797 38.5156C10.0666 38.3631 9.72325 38.283 9.375 38.2812C8.91145 38.2812 8.45831 38.4187 8.07288 38.6762C7.68746 38.9338 7.38705 39.2998 7.20966 39.7281C7.03227 40.1564 6.98585 40.6276 7.07629 41.0822C7.16672 41.5369 7.38994 41.9545 7.71772 42.2823C8.0455 42.6101 8.46312 42.8333 8.91776 42.9237C9.3724 43.0141 9.84365 42.9677 10.2719 42.7903C10.7002 42.6129 11.0662 42.3125 11.3238 41.9271C11.5813 41.5417 11.7188 41.0885 11.7188 40.625C11.717 40.2768 11.6369 39.9334 11.4844 39.6203L15.6195 35.4852Z" fill="#D5D5D5"/>
</svg>
