<svg width="88" height="88" viewBox="0 0 88 88" fill="none" xmlns="http://www.w3.org/2000/svg">
<path d="M44.0169 86.2344C46.5513 86.2344 48.7689 84.932 49.8426 83.0488H38.1562C39.2299 84.9322 41.4299 86.2344 44.0169 86.2344Z" fill="#6A0DAD"/>
<path d="M42.9062 1.76562H45.0957V10.0288H42.9062V1.76562Z" fill="#6A0DAD"/>
<path d="M29.9695 13.2666L25.5445 6.10938L23.6484 7.13141L28.0734 14.2884L29.9695 13.2666Z" fill="#6A0DAD"/>
<path d="M9.84375 20.7706L17.5073 24.9015L18.6017 23.1309L10.9383 19L9.84375 20.7706Z" fill="#6A0DAD"/>
<path d="M69.3984 52.878L77.0618 57.0089L78.1564 55.2385L70.4928 51.1074L69.3984 52.878Z" fill="#6A0DAD"/>
<path d="M5.19141 36.9834H14.0407V39.0268H5.19141V36.9834Z" fill="#6A0DAD"/>
<path d="M73.957 36.9834H82.8063V39.0268H73.957V36.9834Z" fill="#6A0DAD"/>
<path d="M9.84375 55.2385L10.9383 57.0089L18.6017 52.878L17.5073 51.1074L9.84375 55.2385Z" fill="#6A0DAD"/>
<path d="M78.1564 20.7706L77.0618 19L69.3984 23.1309L70.4928 24.9015L78.1564 20.7706Z" fill="#6A0DAD"/>
<path d="M64.3523 7.13141L62.4562 6.10938L58.0312 13.2666L59.9273 14.2884L64.3523 7.13141Z" fill="#6A0DAD"/>
<path d="M43.9992 15.4648C31.3624 15.4648 21.1016 25.4616 21.1016 37.8168C21.1016 44.2936 23.9176 50.1016 28.4408 54.1848C30.9928 56.4728 32.7352 59.4296 33.2808 62.7032H54.7176C55.2632 59.4296 57.0056 56.4728 59.5576 54.2024C64.0808 50.1192 66.8968 44.2936 66.8968 37.8168C66.8966 25.4616 56.6536 15.4648 43.9992 15.4648ZM43.9992 56.6842C39.0888 56.6842 34.4776 54.7834 30.9928 51.3338C27.508 47.849 25.5896 43.2202 25.5896 38.2922C25.5896 28.137 33.844 19.8826 43.9816 19.8826C49.068 19.8826 53.9608 22.0122 57.4456 25.7258C60.6488 29.1226 62.4088 33.593 62.4088 38.3098C62.4086 48.4472 54.1542 56.6842 43.9992 56.6842Z" fill="#6A0DAD"/>
<path d="M31.8984 75.8643C31.8984 78.3778 33.9828 80.4106 36.5601 80.4106H51.4357C54.0128 80.4106 56.0974 78.3778 56.0974 75.8643V65.335H31.8984V75.8643Z" fill="#6A0DAD"/>
<path d="M43.9825 22.5225C35.2881 22.5225 28.2305 29.5801 28.2305 38.2921C28.2305 42.6569 30.0081 46.5993 32.8593 49.4505C33.3345 48.4825 33.3521 45.4377 35.9217 45.4377H40.3569C39.2481 46.7225 38.8609 47.3737 37.7169 48.6057L39.4593 49.6265L37.5761 50.8409L39.2833 53.3225C40.3569 53.6569 41.4657 53.8857 42.6097 53.9737C41.5361 48.6409 40.7617 46.8105 41.2369 45.4377H46.7457C47.2913 46.8281 46.7105 47.4793 45.4081 53.9209C46.5873 53.7801 47.8017 53.5337 48.7345 53.3049L50.4241 50.8409L48.5409 49.6265L50.2834 48.6057C50.1074 48.4121 49.8962 48.2537 47.485 45.4377H52.0786C54.613 45.4377 54.6834 48.5177 55.141 49.4505C58.045 46.5289 59.7698 42.5337 59.7698 38.3097C59.7698 34.1209 58.1682 30.3369 55.5106 27.5209C52.6417 24.4586 48.5407 22.5225 43.9825 22.5225ZM50.3007 37.7817C48.5129 45.9489 39.4855 45.9419 37.6991 37.7817C36.4439 37.719 35.9423 35.4905 36.9599 34.4729C36.595 31.8286 36.6221 28.1311 39.2831 28.3305C38.7378 27.0842 39.7634 25.3751 42.7503 25.6553C48.4555 26.1833 52.2788 28.2785 51.0047 34.4377C52.0556 35.4358 51.591 37.7188 50.3007 37.7817Z" fill="#6A0DAD"/>
</svg>
