<svg width="66" height="66" viewBox="0 0 66 66" fill="none" xmlns="http://www.w3.org/2000/svg">
<path d="M54.9636 55.0996V65.9355H47.3524V59.9183C47.3524 59.4064 46.9384 58.9924 46.4265 58.9924C45.9146 58.9924 45.5006 59.4064 45.5006 59.9183V65.9355H34.3948L39.3299 52.29C39.3511 52.2463 39.3669 52.2001 39.3802 52.1538L43.4662 40.8602C49.875 41.3338 54.9636 47.5387 54.9636 55.0996ZM30.4451 45.261H35.7069L36.9569 40.8299H29.1924L30.4451 45.261ZM35.7586 47.1142H30.3935L28.6488 51.9066L33.0746 64.1394L37.5019 51.9013L35.7586 47.1142ZM11.0352 55.0996V65.9355H18.6463V59.9183C18.6463 59.4064 19.0603 58.9924 19.5722 58.9924C20.0841 58.9924 20.4982 59.4064 20.4982 59.9183V65.9355H31.7548L22.6794 40.8483C16.2017 41.2385 11.0352 47.4818 11.0352 55.0996ZM36.9583 34.7848C36.9583 36.8457 35.1832 38.523 32.9994 38.523C30.8156 38.523 29.0404 36.8458 29.0404 34.7848V34.7703C27.6687 34.7703 26.5537 33.7055 26.5537 32.3959V30.4251C25.7746 30.097 25.227 29.3325 25.227 28.445C25.227 27.031 24.5868 26.2703 23.7032 25.2174C22.4889 23.7716 20.9783 21.974 20.9783 18.0098C20.9783 11.5111 26.3711 6.2254 32.9995 6.2254C39.6279 6.2254 45.0206 11.5111 45.0206 18.0098C45.0206 21.974 43.5114 23.7716 42.2984 25.2161C41.4148 26.2703 40.7759 27.031 40.7759 28.445C40.7759 29.3352 40.227 30.0997 39.4452 30.4278V32.3961C39.4452 33.0508 39.1661 33.6448 38.7164 34.0747C38.2666 34.5046 37.6449 34.7704 36.9585 34.7704V34.7848H36.9583ZM33.9253 22.7491V22.3166C35.2653 22.0984 36.2838 21.0706 36.2838 19.8392C36.2838 18.6077 35.2653 17.58 33.9253 17.363V15.9966C34.2428 16.0456 34.4319 16.2374 34.4319 16.3485C34.4319 16.8604 34.8459 17.2745 35.3578 17.2745C35.8697 17.2745 36.2838 16.8604 36.2838 16.3485C36.2838 15.1727 35.2389 14.211 33.9253 14.1396V13.7428C33.9253 13.2309 33.5113 12.8169 32.9994 12.8169C32.4875 12.8169 32.0734 13.2309 32.0734 13.7428V14.1767C30.7349 14.395 29.719 15.4214 29.719 16.6529C29.719 17.6477 30.219 18.4161 31.1276 18.8143C31.4041 18.9359 31.7124 19.0232 32.0734 19.0815V20.4942C31.7586 20.4452 31.5708 20.2574 31.5708 20.1477C31.5708 19.6358 31.1555 19.2217 30.6449 19.2217C30.133 19.2217 29.719 19.6358 29.719 20.1477C29.719 21.3197 30.7613 22.2799 32.0734 22.3527V22.7495C32.0734 23.2614 32.4875 23.6754 32.9994 23.6754C33.5113 23.6754 33.9253 23.261 33.9253 22.7491ZM38.5972 28.7452C38.7745 28.7452 38.924 28.6076 38.924 28.445C38.924 26.3577 39.9188 25.1726 40.8804 24.0257C42.0048 22.6857 43.1688 21.2996 43.1688 18.0099C43.1688 12.5324 38.6067 8.07739 32.9995 8.07739C27.3923 8.07739 22.8302 12.5324 22.8302 18.0099C22.8302 21.2996 23.9955 22.6858 25.1213 24.0257C26.0842 25.1711 27.079 26.3564 27.079 28.445C27.079 28.6076 27.2285 28.7452 27.4057 28.7452H32.0737V26.0601C28.169 25.5997 25.1293 22.2718 25.1293 18.2466C25.1293 13.9067 28.6596 10.3762 32.9996 10.3762C37.3396 10.3762 40.87 13.9065 40.87 18.2466C40.87 22.2716 37.8303 25.5997 33.9256 26.0601V28.7452H38.5972ZM32.9994 4.76631C33.5109 4.76631 33.9254 4.35162 33.9254 3.84025V0.990516C33.9254 0.479016 33.5107 0.0644531 32.9994 0.0644531C32.488 0.0644531 32.0733 0.479145 32.0733 0.990516V3.84012C32.0733 4.35162 32.4879 4.76631 32.9994 4.76631ZM39.4772 6.45356C39.6228 6.53748 39.7819 6.57744 39.9389 6.57744C40.2591 6.57744 40.5707 6.41102 40.7421 6.11377L42.1408 3.68788C42.3962 3.2447 42.2441 2.67841 41.801 2.42292C41.358 2.16782 40.7915 2.31967 40.536 2.76272L39.1374 5.18861C38.8819 5.63179 39.034 6.19807 39.4772 6.45356ZM45.1298 11.5943C45.2871 11.5943 45.4464 11.5543 45.5922 11.4699L47.9094 10.1314C48.3524 9.87551 48.504 9.30909 48.2481 8.86617C47.9922 8.42325 47.4256 8.27166 46.9829 8.52754L44.6656 9.8661C44.2227 10.122 44.0711 10.6884 44.327 11.1313C44.4987 11.4283 44.8099 11.5943 45.1298 11.5943ZM20.104 24.0498L18.0906 25.2084C17.6473 25.4635 17.4946 26.0297 17.7499 26.473C17.9212 26.7707 18.2329 26.9373 18.5534 26.9373C18.7101 26.9373 18.8689 26.8974 19.0145 26.8137L21.0278 25.6551C21.4711 25.3999 21.6238 24.8338 21.3685 24.3905C21.1134 23.9472 20.5473 23.7947 20.104 24.0498ZM16.3177 18.5983H18.8224C19.3339 18.5983 19.7484 18.1836 19.7484 17.6723C19.7484 17.1609 19.3338 16.7462 18.8224 16.7462H16.3177C15.8062 16.7462 15.3917 17.1609 15.3917 17.6723C15.3917 18.1836 15.8062 18.5983 16.3177 18.5983ZM46.2539 17.6721C46.2539 18.1836 46.6686 18.5982 47.18 18.5982H49.6809C50.1924 18.5982 50.6069 18.1835 50.6069 17.6721C50.6069 17.1608 50.1922 16.7461 49.6809 16.7461H47.18C46.6686 16.7461 46.2539 17.1608 46.2539 17.6721ZM18.0892 10.1314L20.4064 11.4699C20.5523 11.5543 20.7115 11.5943 20.8688 11.5943C21.1887 11.5943 21.5 11.4283 21.6715 11.1313C21.9273 10.6884 21.7758 10.122 21.3328 9.8661L19.0156 8.52754C18.5727 8.27153 18.0063 8.42325 17.7504 8.86617C17.4946 9.30922 17.6462 9.87564 18.0892 10.1314ZM44.9708 25.6552L46.9843 26.8138C47.1298 26.8976 47.2886 26.9374 47.4454 26.9374C47.7658 26.9374 48.0777 26.7707 48.2488 26.4731C48.504 26.0298 48.3515 25.4635 47.9081 25.2085L45.8946 24.0499C45.4515 23.7949 44.885 23.9473 44.6301 24.3906C44.375 24.8339 44.5274 25.4001 44.9708 25.6552ZM25.2566 6.11377C25.4281 6.41115 25.7395 6.57744 26.0598 6.57744C26.2168 6.57744 26.3759 6.53748 26.5216 6.45356C26.9647 6.19807 27.1169 5.63179 26.8614 5.18861L25.4627 2.76272C25.2072 2.31967 24.6408 2.16769 24.1978 2.42292C23.7546 2.67841 23.6025 3.2447 23.858 3.68788L25.2566 6.11377ZM34.4319 19.8391C34.4319 19.6287 34.2335 19.4026 33.9253 19.2742V20.4038C34.2335 20.277 34.4319 20.0494 34.4319 19.8391ZM31.5708 16.6526C31.5708 16.814 31.5708 17.0481 32.0734 17.1909V16.089C31.7679 16.2174 31.5708 16.4423 31.5708 16.6526Z" fill="#6A0DAD"/>
</svg>
