<svg width="68" height="68" viewBox="0 0 68 68" fill="none" xmlns="http://www.w3.org/2000/svg">
<path d="M50.5773 29.379L54.9874 31.0938L44.9654 34.9906L50.5773 29.379ZM17.4247 29.379L13.0144 31.0939L23.0361 34.9906L17.4247 29.379ZM29.0145 37.315V34.6231C28.0667 34.3266 27.1477 33.9453 26.2679 33.4845L24.2788 35.4737L29.0145 37.315ZM19.7247 21.561H16.8533V15.8379H19.7247C20.1024 13.943 20.848 12.181 21.8835 10.629L19.8522 8.59759L23.8991 4.5508L25.9305 6.58216C27.4824 5.54636 29.2447 4.80128 31.1394 4.4233V1.55176H36.8625V4.4233C38.7574 4.80102 40.5194 5.54662 42.0713 6.5823L44.1028 4.5508L48.1496 8.59773L46.1182 10.6292C47.154 12.1811 47.8992 13.9433 48.2771 15.838H51.1488V21.5612H48.2772C47.8995 23.456 47.1539 25.218 46.1184 26.7701L48.1497 28.8014L44.1028 32.8482L42.0716 30.8169C40.5196 31.8528 38.7574 32.5979 36.8626 32.9759V35.8473H31.1395V32.9759C29.2447 32.5981 27.4826 31.8527 25.9305 30.817L23.8991 32.8484L19.8523 28.8014L21.8837 26.7702C20.8476 25.2181 20.1025 23.4559 19.7247 21.561ZM24.0215 18.6996C24.0215 24.2108 28.4896 28.6788 34.0008 28.6788C39.512 28.6788 43.9801 24.2108 43.9801 18.6996C43.9801 13.1883 39.512 8.72018 34.0008 8.72018C28.4895 8.72031 24.0215 13.1884 24.0215 18.6996ZM28.4067 24.213C27.009 22.795 26.1464 20.8481 26.1464 18.6997C26.1464 14.3617 29.6628 10.8453 34.0007 10.8453C38.3387 10.8453 41.8549 14.3617 41.8549 18.6997C41.8549 20.8484 40.9921 22.7955 39.5942 24.2136C38.5552 22.1755 36.4341 20.7713 34.0008 20.7713C31.6123 20.7712 29.4611 22.1405 28.4067 24.213ZM30.6106 16.0528C30.6106 17.9251 32.1285 19.4431 34.0009 19.4431C35.8733 19.4431 37.3912 17.9251 37.3912 16.0528C37.3912 14.1804 35.8733 12.6625 34.0009 12.6625C32.1285 12.6625 30.6106 14.1804 30.6106 16.0528ZM38.5166 50.3298L35.0634 44.3505V66.4482L56.8472 57.9781V44.1643L39.8151 50.7868C39.3217 50.9775 38.7732 50.7738 38.5166 50.3298ZM32.4676 40.9303L10.5561 32.4103L6.19531 39.9634L28.1069 48.4832L32.4676 40.9303ZM39.897 48.4824L61.8066 39.9634L57.4459 32.4103L35.5362 40.9295L39.897 48.4824ZM38.9874 34.6231V37.3151L43.7231 35.4738L41.7339 33.4847C40.8543 33.9454 39.9351 34.3264 38.9874 34.6231ZM30.7044 37.9721L34.0009 39.2539L37.2975 37.9721H30.7044ZM28.1873 50.7859L11.1547 44.1643V57.9781L32.9384 66.4482V44.3463L29.486 50.3261C29.2222 50.7852 28.6663 50.9717 28.1873 50.7859Z" fill="#6A0DAD"/>
</svg>
