<svg width="65" height="65" viewBox="0 0 65 65" fill="none" xmlns="http://www.w3.org/2000/svg">
<path fill-rule="evenodd" clip-rule="evenodd" d="M33.3887 38.7207C33.3887 39.2115 32.9908 39.6094 32.5 39.6094C32.0092 39.6094 31.6113 39.2115 31.6113 38.7207V32.3483H33.3887V38.7207ZM46.1788 18.3562C43.2956 18.3562 41.8491 21.849 43.8876 23.8875C44.2632 24.263 44.2632 24.8721 43.8876 25.2477L41.8171 27.3182C41.4416 27.6937 40.8324 27.6937 40.457 27.3182C38.4184 25.2795 34.9256 26.7262 34.9256 29.6093C34.9256 30.1406 34.4949 30.5709 33.9639 30.5709H31.036C30.5051 30.5709 30.0743 30.1406 30.0743 29.6093C30.0743 26.7226 26.584 25.277 24.5428 27.3182C24.1673 27.6937 23.5582 27.6937 23.1827 27.3182L21.1123 25.2477C20.7368 24.8721 20.7368 24.263 21.1123 23.8875C23.1508 21.849 21.7042 18.3562 18.8211 18.3562C18.2898 18.3562 17.8594 17.9255 17.8594 17.3944V16.5651C17.8594 16.2155 18.1445 15.9303 18.4942 15.9303H24.7371C25.0688 15.9303 25.3429 16.1833 25.3696 16.5139C25.6665 20.1919 28.7454 23.0841 32.4999 23.0841C36.2543 23.0841 39.3333 20.1918 39.6302 16.5139C39.6569 16.1833 39.9312 15.9303 40.2627 15.9303H46.5056C46.8552 15.9303 47.1404 16.2155 47.1404 16.5651V17.3944C47.1405 17.9255 46.7101 18.3562 46.1788 18.3562ZM6.41266 45.5137C6.41266 47.5932 8.09834 49.2788 10.1778 49.2788C12.2573 49.2788 13.9429 47.5932 13.9429 45.5137C13.9429 43.4349 12.2573 41.7492 10.1778 41.7492C8.09834 41.7492 6.41266 43.4349 6.41266 45.5137ZM40.6463 59.5946C40.6463 64.0936 24.3538 64.0936 24.3538 59.5946C24.3538 55.0958 28.0014 51.4486 32.5004 51.4486C36.9992 51.4486 40.6463 55.0958 40.6463 59.5946ZM28.7352 45.5137C28.7352 47.5932 30.4208 49.2788 32.5003 49.2788C34.5797 49.2788 36.2653 47.5932 36.2653 45.5137C36.2653 43.4349 34.5797 41.7492 32.5003 41.7492C30.4208 41.7492 28.7352 43.4349 28.7352 45.5137ZM51.0576 45.5137C51.0576 47.5932 52.7432 49.2788 54.8228 49.2788C56.9024 49.2788 58.5879 47.5932 58.5879 45.5137C58.5879 43.4349 56.9023 41.7492 54.8228 41.7492C52.7433 41.7492 51.0576 43.4349 51.0576 45.5137ZM18.3238 59.5946C18.3238 64.0936 2.03125 64.0936 2.03125 59.5946C2.03125 55.0958 5.67887 51.4486 10.1778 51.4486C14.6767 51.4486 18.3238 55.0958 18.3238 59.5946ZM62.9688 59.5946C62.9688 64.0936 46.6762 64.0936 46.6762 59.5946C46.6762 55.0958 50.3238 51.4486 54.8228 51.4486C59.3216 51.4486 62.9688 55.0958 62.9688 59.5946ZM26.233 14.6729C26.7414 15.075 27.0854 15.6791 27.1413 16.3711C27.3664 19.1581 29.7035 21.3071 32.5 21.3071C35.2965 21.3071 37.6337 19.1581 37.8588 16.3711C37.9147 15.679 38.2588 15.0749 38.7673 14.6727C37.2731 12.8752 35.0204 11.7306 32.5003 11.7306C29.9801 11.7306 27.7273 12.8753 26.233 14.6729ZM50.194 38.2048L38.0914 28.1455C37.4573 28.1822 36.864 28.6301 36.7308 29.316L49.0624 39.5656C49.4382 39.878 49.9962 39.8267 50.3086 39.4511C50.621 39.0753 50.5697 38.5173 50.194 38.2048ZM15.9377 39.5656L28.2693 29.3159C28.1366 28.6284 27.5446 28.1802 26.9108 28.1436L14.8059 38.2048C14.4301 38.5172 14.3788 39.0752 14.6913 39.4509C15.004 39.8268 15.5619 39.8781 15.9377 39.5656ZM28.7352 5.79579C28.7352 7.87528 30.4208 9.56084 32.5003 9.56084C34.5797 9.56084 36.2653 7.87528 36.2653 5.79579C36.2654 3.71693 34.5797 2.03125 32.5003 2.03125C30.4208 2.03125 28.7352 3.71693 28.7352 5.79579Z" fill="#6A0DAD"/>
</svg>
