<svg width="80" height="80" viewBox="0 0 80 80" fill="none" xmlns="http://www.w3.org/2000/svg">
<path d="M20.5617 53.6621C16.2617 53.6621 12.7617 57.1496 12.7617 61.4621C12.7617 63.9746 13.9867 66.3496 16.0367 67.8121C16.4117 68.0746 16.8117 68.3121 17.2367 68.5246C18.2742 69.0121 19.3992 69.2621 20.5617 69.2621C21.6992 69.2621 22.8492 68.9996 23.8867 68.5121C24.3367 68.3121 24.7367 68.0621 25.0867 67.7996C27.1367 66.3371 28.3617 63.9621 28.3617 61.4621C28.3617 57.1496 24.8617 53.6621 20.5617 53.6621Z" fill="#6A0DAD"/>
<path d="M51.3264 7.2C48.3014 4.1625 44.2889 2.5 40.0014 2.5C31.1639 2.5 23.9764 9.6875 23.9764 18.525V45C23.7764 45.2 23.5889 45.4125 23.4139 45.6375C23.0389 45.5 22.6389 45.4125 22.2139 45.4125H18.9139C17.0014 45.4125 15.4389 46.975 15.4389 48.875V49.0625C15.4389 49.425 15.2264 49.7625 14.8889 49.9375C14.3764 50.1875 13.8889 50.4625 13.4139 50.775C13.1014 50.9875 12.7014 51.0125 12.3889 50.825L12.2264 50.7375C10.5764 49.7875 8.45142 50.35 7.48892 52L5.83892 54.8625C5.37642 55.6625 5.25142 56.6 5.50142 57.5C5.73892 58.3875 6.31392 59.1375 7.11392 59.6L7.26392 59.6875C7.57642 59.875 7.76392 60.2375 7.73892 60.65C7.71392 60.925 7.70142 61.1875 7.70142 61.4625C7.70142 61.725 7.71392 61.9875 7.73892 62.2625C7.76392 62.675 7.57642 63.0375 7.26392 63.225L7.11392 63.3125C5.45142 64.275 4.88892 66.3875 5.83892 68.05L7.48892 70.9125C7.95142 71.7125 8.70142 72.2875 9.60142 72.525C10.4889 72.7625 11.4264 72.6375 12.2264 72.175L12.3889 72.0875C12.7014 71.9 13.1014 71.925 13.4139 72.1375C13.8889 72.45 14.3764 72.7375 14.8889 72.975C15.2264 73.15 15.4389 73.4875 15.4389 73.85V74.0375C15.4389 75.95 17.0014 77.5 18.9139 77.5H22.2139C24.1264 77.5 25.6764 75.95 25.6764 74.0375V73.85C25.6764 73.4875 25.8889 73.15 26.2389 72.975C26.7389 72.7375 27.2389 72.45 27.7014 72.1375C28.0264 71.925 28.4139 71.9 28.7389 72.0875L28.8889 72.175C29.7014 72.6375 30.6264 72.7625 31.5264 72.525C32.4139 72.2875 33.1639 71.7125 33.6264 70.9125L34.4014 69.575H63.0139C63.1639 69.575 63.3014 69.5375 63.4514 69.4875C63.4889 69.475 63.5264 69.45 63.5639 69.425C63.6139 69.4125 63.6639 69.4 63.7014 69.3625L74.0639 62.5C74.4139 62.2625 74.6264 61.875 74.6264 61.4625C74.6264 61.0375 74.4139 60.65 74.0639 60.4125L63.7014 53.55C63.6639 53.5125 63.6139 53.5 63.5639 53.475C63.5264 53.4625 63.4889 53.4375 63.4514 53.425C63.3014 53.375 63.1639 53.3375 63.0139 53.3375H57.9264V49.6375C57.9264 47.8875 57.2264 46.225 56.0139 44.9875V18.525C56.0139 14.2375 54.3514 10.2125 51.3264 7.2ZM31.7764 26.4125V20.125C32.8889 19.625 34.4264 18.7125 35.7389 17.075C36.2389 16.4375 36.6639 15.75 37.0014 15.0125C38.2764 16.5125 40.2764 18.2375 43.1389 19.175C44.7639 19.7125 46.4764 19.9 48.2389 19.775V26.4125C48.2389 30.95 44.5389 34.65 40.0014 34.65C37.8014 34.65 35.7389 33.7875 34.1764 32.2375C32.6264 30.675 31.7764 28.6125 31.7764 26.4125ZM36.2639 37.5125V36.4625C37.4514 36.9 38.7014 37.15 40.0014 37.15C41.3139 37.15 42.5764 36.9 43.7389 36.4625V37.5125C43.7389 39.7875 44.8889 41.85 46.7389 43.0625L40.0014 48.9L33.2639 43.0625C35.1139 41.85 36.2639 39.7875 36.2639 37.5125ZM26.0389 46.4875C26.3514 46.225 26.7139 46 27.1014 45.825L30.8014 44.2375L39.1764 51.5C39.4139 51.7 39.7014 51.8 40.0014 51.8C40.2889 51.8 40.5764 51.7 40.8139 51.5L49.2014 44.2375L52.9014 45.825C53.2764 45.9875 53.6389 46.2125 53.9639 46.475C54.8889 47.2625 55.4264 48.4125 55.4264 49.6375V53.3375H34.4014L33.6264 52C32.6764 50.35 30.5514 49.775 28.8889 50.7375L28.7389 50.825C28.4139 51.0125 28.0264 50.9875 27.7014 50.775C27.2389 50.4625 26.7389 50.1875 26.2389 49.9375C25.8889 49.7625 25.6764 49.425 25.6764 49.0625V48.875C25.6764 48.325 25.5389 47.8 25.3014 47.3375C25.5139 47.025 25.7514 46.725 26.0389 46.4875ZM33.1139 66.8L31.4639 69.6625C31.3389 69.8875 31.1264 70.0375 30.8764 70.1125C30.6264 70.175 30.3639 70.1375 30.1389 70.0125L29.9889 69.925C28.8389 69.2625 27.4389 69.3125 26.3139 70.05C25.9389 70.3125 25.5389 70.5375 25.1389 70.7375C23.9264 71.325 23.1764 72.525 23.1764 73.85V74.0375C23.1764 74.5625 22.7514 75 22.2139 75H18.9139C18.3764 75 17.9389 74.5625 17.9389 74.0375V73.85C17.9389 72.525 17.1889 71.325 15.9889 70.7375C15.5764 70.5375 15.1889 70.3125 14.8139 70.05C14.2139 69.6625 13.5389 69.4625 12.8514 69.4625C12.2639 69.4625 11.6764 69.6125 11.1389 69.925L10.9764 70.0125C10.7514 70.1375 10.5014 70.175 10.2514 70.1125C10.0014 70.0375 9.78892 69.8875 9.66392 69.6625L8.01392 66.8C7.73892 66.3375 7.90142 65.7375 8.36392 65.475L8.51392 65.3875C9.66392 64.725 10.3139 63.4625 10.2264 62.0875C10.2139 61.875 10.2014 61.675 10.2014 61.4625C10.2014 61.25 10.2139 61.0375 10.2264 60.825C10.3139 59.45 9.66392 58.1875 8.51392 57.525L8.36392 57.4375C8.13892 57.3 7.97642 57.1 7.91392 56.85C7.83892 56.6 7.87642 56.3375 8.01392 56.1125L9.66392 53.25C9.92642 52.8 10.5139 52.6375 10.9764 52.9L11.1389 52.9875C12.2889 53.65 13.6889 53.6 14.8139 52.8625C15.1889 52.6 15.5764 52.375 15.9889 52.175C17.1889 51.5875 17.9389 50.3875 17.9389 49.0625V48.875C17.9389 48.35 18.3764 47.9125 18.9139 47.9125H22.2139C22.4764 47.9125 22.7139 48.025 22.8889 48.1875C22.9014 48.2 22.9014 48.2125 22.9139 48.225C23.0764 48.4 23.1764 48.625 23.1764 48.875V49.0625C23.1764 50.3875 23.9264 51.5875 25.1389 52.175C25.5389 52.375 25.9389 52.6 26.3139 52.8625C27.4389 53.6 28.8389 53.65 29.9889 52.9875L30.1389 52.9C30.6139 52.6375 31.2014 52.7875 31.4639 53.25L33.1139 56.1125C33.2514 56.3375 33.2764 56.6 33.2139 56.85C33.1514 57.1 32.9889 57.3 32.7639 57.4375L32.6139 57.525C31.4639 58.1875 30.8014 59.45 30.9014 60.825C30.9139 61.0375 30.9139 61.25 30.9139 61.4625C30.9139 61.675 30.9139 61.875 30.9014 62.0875C30.8014 63.4625 31.4639 64.725 32.6139 65.4L32.7639 65.475C33.2264 65.7375 33.3889 66.3375 33.1139 66.8ZM61.7639 67.075H35.6389C35.9639 65.6375 35.3514 64.0875 34.0139 63.3125L33.8639 63.225C33.6639 63.1125 33.5389 62.925 33.4514 62.7125H61.7639V67.075ZM61.7639 55.8375V60.2125H33.4639C33.5389 59.9875 33.6764 59.8 33.8639 59.6875L34.0139 59.6C34.8139 59.1375 35.3889 58.3875 35.6264 57.5C35.7764 56.95 35.7639 56.375 35.6514 55.8375H61.7639Z" fill="#6A0DAD"/>
</svg>
