<svg width="69" height="69" viewBox="0 0 69 69" fill="none" xmlns="http://www.w3.org/2000/svg">
<path fill-rule="evenodd" clip-rule="evenodd" d="M24.6858 23.7845H63.4281C63.6954 23.7845 63.914 24.0032 63.914 24.2703V46.0627H54.0897L54.4862 46.7493C55.4182 48.3637 54.2495 50.3879 52.3854 50.3879H46.9373L39.4458 46.0627H25.1907C24.7085 47.9527 23.6465 49.6111 22.2056 50.8374C22.8467 51.5295 23.7619 51.9644 24.7737 51.9644H36.8953V57.5307H31.5625C31.0171 57.5307 30.5046 57.6492 30.0632 57.8554C30.895 59.2118 31.5362 60.7058 31.9457 62.3052H58.1914C58.9337 62.3052 59.5391 61.6998 59.5391 60.9575V59.918C59.5391 58.6051 58.1945 57.5308 56.5513 57.5308H51.2185V51.9645H63.3401C65.267 51.9645 66.8436 50.3879 66.8436 48.461V24.3583C66.8436 22.4314 65.267 20.8548 63.3401 20.8548H24.7737C22.8467 20.8548 21.2702 22.4314 21.2702 24.3583V35.9817C22.4673 36.7659 23.4724 37.8187 24.2 39.0548V24.2704C24.2 24.0032 24.4186 23.7845 24.6858 23.7845ZM46.5852 47.695L31.1271 38.7701L33.7957 34.1479L49.2539 43.0727L46.5852 47.695ZM29.2641 37.6946L27.9473 36.9343C26.8866 36.322 26.5208 34.9572 27.1333 33.8965L27.578 33.126C28.1904 32.0653 29.5552 31.6995 30.6159 32.312L31.9327 33.0724L29.2641 37.6946ZM50.8033 44.683L52.6187 47.8275C52.7227 48.0078 52.5934 48.2318 52.3853 48.2318H48.7543L50.8033 44.683ZM32.3088 28.8037C31.8928 28.631 31.6752 28.1261 31.8129 27.6119C31.9506 27.0978 32.3935 26.756 32.8383 26.8277L46.0045 28.9492L44.669 33.9337L32.3088 28.8037ZM46.6751 34.7665L48.1415 29.2938L49.2118 29.4663C49.6653 29.5394 49.8801 30.068 49.7451 30.5725L48.6947 34.4924C48.5597 34.9967 48.1042 35.3597 47.6799 35.1837L46.6751 34.7665ZM58.0131 31.3511C59.4537 32.7918 60.8642 35.4154 60.8794 37.1781C56.9552 35.6975 55.1834 38.1976 51.8841 37.2037C51.2696 36.9722 50.781 36.6501 50.4042 36.2685L52.2318 29.4481C53.7835 28.838 55.8315 29.1696 58.0131 31.3511ZM3.74608 64.8358C2.87549 64.8358 2.23778 64.0354 2.43238 63.1868C3.87006 56.9181 9.48224 52.2421 16.1871 52.2421C22.8918 52.2421 28.504 56.9181 29.9417 63.1868C30.1363 64.0354 29.4987 64.8358 28.628 64.8358H3.74608ZM16.1871 36.6242C20.1277 36.6242 23.3223 39.8187 23.3223 43.7594C23.3223 47.7 20.1277 50.8946 16.1871 50.8946C12.2466 50.8946 9.05194 47.7001 9.05194 43.7594C9.05207 39.8187 12.2466 36.6242 16.1871 36.6242ZM11.5326 4.16406C16.7109 4.16406 20.9089 8.36201 20.9089 13.5404C20.9089 18.7479 17.5823 18.4365 17.1313 26.1124H14.2299V16.8663H15.3307C17.1243 16.8663 18.5877 15.4028 18.5877 13.6092C18.5877 11.8158 17.1243 10.3522 15.3307 10.3522C13.5372 10.3522 12.0737 11.8158 12.0737 13.6092V14.71H10.9915V13.6092C10.9915 11.8158 9.52807 10.3522 7.73447 10.3522C5.94087 10.3522 4.47745 11.8158 4.47745 13.6092C4.47745 15.4027 5.94101 16.8663 7.73447 16.8663H8.83523V26.1124H5.934C5.48281 18.4365 2.15625 18.7479 2.15625 13.5404C2.15625 8.36201 6.3542 4.16406 11.5326 4.16406ZM12.0737 26.1124V16.8663H10.9915V26.1124H12.0737ZM8.83523 14.71V13.6092C8.83523 13.006 8.33768 12.5085 7.73447 12.5085C7.13126 12.5085 6.6337 13.006 6.6337 13.6092C6.6337 14.2125 7.13126 14.71 7.73447 14.71H8.83523ZM14.2299 14.71H15.3307C15.9339 14.71 16.4314 14.2125 16.4314 13.6092C16.4314 13.006 15.9339 12.5085 15.3307 12.5085C14.7275 12.5085 14.2299 13.006 14.2299 13.6092V14.71ZM6.0724 28.2685C6.31377 28.7932 6.84488 29.1597 7.45766 29.1597H15.6076C16.2204 29.1597 16.7515 28.7932 16.9929 28.2685H6.0724ZM14.084 32.2072C14.6966 32.2072 15.2278 31.8407 15.4692 31.3161H7.5962C7.83757 31.8407 8.36868 32.2072 8.98146 32.2072H14.084ZM9.15854 34.3633C9.3999 34.8879 9.93101 35.2546 10.5438 35.2546H12.5212C13.134 35.2546 13.6651 34.8881 13.9065 34.3633H9.15854Z" fill="#6A0DAD"/>
</svg>
