<svg width="73" height="73" viewBox="0 0 73 73" fill="none" xmlns="http://www.w3.org/2000/svg">
<path d="M37.6542 13.3206C36.7713 15.0419 36.3135 17.1093 36.3135 19.4459V22.7836C35.7981 22.9471 35.2612 23.0298 34.7108 23.0298C31.788 23.0298 29.4099 20.6518 29.4099 17.7289C29.4099 14.8061 31.788 12.428 34.7108 12.428C35.7646 12.428 36.7876 12.7417 37.6542 13.3206ZM22.7304 20.1719C23.0716 20.2178 23.3519 20.4634 23.442 20.7956C23.7009 21.7492 24.082 22.6684 24.5748 23.5273C24.7462 23.826 24.7216 24.1983 24.5128 24.472L23.0063 26.446C23.8542 27.5825 24.8589 28.587 25.9937 29.4336L27.969 27.9265C28.2426 27.7178 28.6149 27.6934 28.9133 27.8644C29.7739 28.3577 30.6927 28.7387 31.6441 28.997C31.9762 29.0873 32.222 29.3677 32.2677 29.7088L32.5984 32.1698C33.8317 32.3488 35.0787 32.3703 36.3135 32.235V24.555C35.7918 24.6772 35.2563 24.7411 34.7108 24.7411C30.8445 24.7411 27.699 21.5955 27.699 17.7292C27.699 13.8629 30.8445 10.7174 34.7108 10.7174C36.0874 10.7174 37.4246 11.1216 38.562 11.8695C38.9211 11.393 39.3206 10.9523 39.7624 10.5524C41.3065 9.15471 43.2942 8.30523 45.6115 8.02963C44.9535 7.29107 44.2235 6.61825 43.4279 6.0247L41.4526 7.53175C41.1791 7.74062 40.8073 7.76529 40.5082 7.59391C39.648 7.10073 38.7291 6.71962 37.7775 6.46127C37.4455 6.37102 37.1997 6.09057 37.1539 5.74952L36.8232 3.28834C35.4204 3.08473 33.9998 3.08502 32.5984 3.28834L32.2677 5.74952C32.222 6.09057 31.9762 6.37102 31.6441 6.46113C30.6912 6.71991 29.7725 7.10102 28.9134 7.59377C28.6146 7.76529 28.2425 7.74048 27.9689 7.53175L25.9939 6.0247C24.8571 6.87289 23.8525 7.8775 23.0064 9.01214L24.5132 10.9871C24.7221 11.2607 24.7466 11.633 24.5754 11.9317C24.0822 12.7916 23.7011 13.7104 23.4426 14.6626C23.3525 14.9949 23.072 15.2405 22.731 15.2864L20.2701 15.6169C20.0668 17.02 20.0669 18.4407 20.2701 19.8418L22.7304 20.1723V20.1719ZM38.0246 19.4459V36.2761H58.6776V34.51C55.0231 32.2475 52.3413 28.7176 51.2376 24.7138C49.3935 23.7747 46.9624 21.6648 45.9799 19.726C45.7663 19.3046 45.9348 18.7899 46.3563 18.5763C46.7776 18.3628 47.2925 18.5314 47.5059 18.9527C48.3441 20.6067 50.6845 22.5957 52.2519 23.3037C54.0142 23.7888 55.8972 23.6375 57.561 22.8736C57.9652 22.6879 58.4434 22.8428 58.6627 23.2299C59.1575 24.1047 60.0126 24.6952 61.0085 24.8497C61.9474 24.9953 62.8851 24.7339 63.6067 24.1304L64.8766 21.1847C63.1661 19.136 59.5677 14.9561 54.166 8.74323C53.8911 8.42699 53.8857 7.9582 54.1533 7.63569C55.1612 6.42106 55.6448 4.89975 55.5351 3.35649C52.8164 4.24404 50.6321 6.39141 49.722 9.13461C49.596 9.51458 49.2224 9.75582 48.8252 9.71647C45.5306 9.38783 42.7943 10.1155 40.9105 11.8206C39.0225 13.5297 38.0245 16.1666 38.0245 19.446L38.0246 19.4459ZM33.2853 39.1628V41.6233L39.2656 43.2258H62.2411C62.8895 43.2258 63.4171 42.6982 63.4171 42.0498V39.1628C63.4171 38.5144 62.8895 37.9869 62.2411 37.9869H34.4613C33.8129 37.9869 33.2853 38.5144 33.2853 39.1628ZM66.5447 49.2651C65.7381 47.8681 63.945 47.388 62.5486 48.1945L52.8328 53.8038C51.2877 54.6959 49.6302 54.914 47.9066 54.4522L44.4168 53.5172L44.4114 53.5158L34.6894 50.9107C34.233 50.7885 33.9621 50.3194 34.0845 49.8631C34.2068 49.4065 34.676 49.1358 35.1323 49.2581L44.8542 51.8631C46.567 52.3225 47.67 51.2692 48.0039 50.0227C48.3381 48.776 47.9087 47.3128 46.1966 46.8539L32.4201 43.1624C31.133 42.8177 29.946 42.9738 28.7921 43.6401L16.3197 50.841L22.5302 61.5978L27.6098 58.6651C27.741 58.5894 27.8887 58.5505 28.0376 58.5505C28.1119 58.5505 28.1861 58.56 28.259 58.5796L44.816 63.016C46.5207 63.4728 48.1599 63.2571 49.6888 62.3744L65.474 53.261C66.871 52.4544 67.3514 50.6619 66.5448 49.2649L66.5447 49.2651ZM22.3115 64.6411C22.5898 65.123 22.663 65.6875 22.5174 66.2304C22.3718 66.7734 22.0263 67.2256 21.5444 67.504L17.9423 69.5836C16.9413 70.1615 15.6572 69.8173 15.0794 68.8165L6.34289 53.6846C5.76502 52.6837 6.10921 51.3993 7.11011 50.8216L10.7122 48.742C11.0321 48.5573 11.3884 48.4629 11.7506 48.4629C11.9341 48.4629 12.119 48.4872 12.3015 48.5361C12.8446 48.6816 13.2967 49.0271 13.575 49.5092L22.3115 64.6413V64.6411ZM12.3443 54.0173L11.3532 52.3007C11.1171 51.8918 10.5943 51.7514 10.1847 51.9876C9.77546 52.2239 9.63531 52.7471 9.87156 53.1562L10.8626 54.8728C11.021 55.1473 11.3086 55.3007 11.6043 55.3007C11.7495 55.3007 11.8965 55.2638 12.0312 55.1859C12.4404 54.9497 12.5805 54.4264 12.3443 54.0173Z" fill="#6A0DAD"/>
</svg>
