<svg width="50" height="50" viewBox="0 0 50 50" fill="none" xmlns="http://www.w3.org/2000/svg">
<path d="M13.5156 15.625C12.3027 16.8155 11.2803 18.1858 10.4844 19.6875L11.8672 20.4219C12.585 19.0606 13.5101 17.8192 14.6094 16.7422L13.5156 15.625Z" fill="#D5D5D5"/>
<path d="M18.3359 14.0625C19.7087 13.3686 21.1827 12.8966 22.7031 12.6641L22.4609 11.1016C20.7793 11.3648 19.1498 11.8922 17.6328 12.6641L18.3359 14.0625Z" fill="#D5D5D5"/>
<path d="M31.6484 14.0625L32.3516 12.6641C30.8342 11.893 29.2049 11.3657 27.5234 11.1016L27.2891 12.6641C28.8067 12.8978 30.278 13.3698 31.6484 14.0625Z" fill="#D5D5D5"/>
<path d="M39.5078 19.6719C38.7105 18.1757 37.6881 16.8109 36.4766 15.625L35.3828 16.7422C36.4814 17.8168 37.4065 19.0555 38.125 20.4141L39.5078 19.6719Z" fill="#D5D5D5"/>
<path d="M24.2188 3.90625H25.7812V5.46875H24.2188V3.90625Z" fill="#D5D5D5"/>
<path d="M24.2188 7.03125H25.7812V8.59375H24.2188V7.03125Z" fill="#D5D5D5"/>
<path d="M25.7812 5.46875H27.3438V7.03125H25.7812V5.46875Z" fill="#D5D5D5"/>
<path d="M22.6562 5.46875H24.2188V7.03125H22.6562V5.46875Z" fill="#D5D5D5"/>
<path d="M6.25 11.7188H7.8125V13.2812H6.25V11.7188Z" fill="#D5D5D5"/>
<path d="M6.25 14.8438H7.8125V16.4062H6.25V14.8438Z" fill="#D5D5D5"/>
<path d="M7.8125 13.2812H9.375V14.8438H7.8125V13.2812Z" fill="#D5D5D5"/>
<path d="M4.6875 13.2812H6.25V14.8438H4.6875V13.2812Z" fill="#D5D5D5"/>
<path d="M42.1875 11.7188H43.75V13.2812H42.1875V11.7188Z" fill="#D5D5D5"/>
<path d="M42.1875 14.8438H43.75V16.4062H42.1875V14.8438Z" fill="#D5D5D5"/>
<path d="M43.75 13.2812H45.3125V14.8438H43.75V13.2812Z" fill="#D5D5D5"/>
<path d="M40.625 13.2812H42.1875V14.8438H40.625V13.2812Z" fill="#D5D5D5"/>
<path d="M25 16.4063C22.0228 16.4085 19.1327 17.411 16.7936 19.2528C14.4545 21.0946 12.8021 23.6689 12.1016 26.5625H10.1562C10.1818 25.9574 10.2471 25.3545 10.3516 24.7579L8.78906 24.4844C8.68076 25.1724 8.61553 25.8664 8.59375 26.5625H7.8125C7.6902 26.5633 7.56978 26.5927 7.46094 26.6485L2.77344 28.9922C2.64547 29.0578 2.53807 29.1574 2.46308 29.2801C2.38809 29.4028 2.34841 29.5438 2.34841 29.6875C2.34841 29.8313 2.38809 29.9723 2.46308 30.095C2.53807 30.2177 2.64547 30.3173 2.77344 30.3829L7.46094 32.7266C7.56978 32.7824 7.6902 32.8118 7.8125 32.8125H11.7188V45.3125H1.5625V46.875H48.4375V45.3125H32.0312V43.75H35.9375C36.116 43.7552 36.2908 43.6992 36.433 43.5911C36.5751 43.4831 36.676 43.3296 36.7188 43.1563L38.1094 37.5H40.625C40.7723 37.4996 40.9164 37.4576 41.0408 37.3788C41.1652 37.3 41.2648 37.1877 41.3281 37.0547C41.383 36.9279 41.4033 36.7887 41.3868 36.6514C41.3703 36.5142 41.3177 36.3838 41.2344 36.2735L38.5 32.8125H45.3125C45.9341 32.8125 46.5302 32.5656 46.9698 32.1261C47.4093 31.6865 47.6562 31.0904 47.6562 30.4688V28.9063C47.6562 28.2847 47.4093 27.6886 46.9698 27.249C46.5302 26.8095 45.9341 26.5625 45.3125 26.5625H41.4062C41.3767 25.866 41.3037 25.1719 41.1875 24.4844L39.625 24.7579C39.7373 25.354 39.8104 25.9568 39.8438 26.5625H37.9062C37.213 23.6636 35.5614 21.0836 33.2191 19.2403C30.8767 17.397 27.9807 16.3985 25 16.4063ZM8.59375 31.25V28.125H28.5781C28.7939 28.6177 28.9056 29.1497 28.9062 29.6875C28.9101 30.2259 28.7982 30.7587 28.5781 31.25H8.59375ZM32.5938 31.4766C32.5938 31.5938 32.5391 31.711 32.5078 31.8204C32.3158 32.5177 32.0237 33.1834 31.6406 33.7969C31.0075 33.9023 30.4231 34.2029 29.9692 34.6568C29.5153 35.1106 29.2147 35.695 29.1094 36.3282C28.3868 36.7761 27.5947 37.1009 26.7656 37.2891C26.241 36.9228 25.6165 36.7263 24.9766 36.7263C24.3367 36.7263 23.7122 36.9228 23.1875 37.2891C22.3584 37.1009 21.5664 36.7761 20.8438 36.3282C20.7384 35.695 20.4378 35.1106 19.9839 34.6568C19.5301 34.2029 18.9457 33.9023 18.3125 33.7969C18.1321 33.4808 17.9754 33.1518 17.8438 32.8125H20.5312C21.0579 33.5622 21.7645 34.1675 22.5862 34.5729C23.4078 34.9783 24.3181 35.1708 25.2335 35.1327C26.1489 35.0946 27.04 34.8271 27.8251 34.3548C28.6102 33.8825 29.264 33.2206 29.7266 32.4297C30.2065 31.5984 30.4592 30.6553 30.4592 29.6954C30.4592 28.7354 30.2065 27.7923 29.7266 26.961C29.2654 26.1692 28.6126 25.506 27.8283 25.0323C27.044 24.5586 26.1532 24.2895 25.2377 24.2499C24.3223 24.2102 23.4116 24.4012 22.5892 24.8053C21.7668 25.2094 21.0592 25.8136 20.5312 26.5625H17.8438C17.9906 26.2219 18.1629 25.8928 18.3594 25.5782C18.9925 25.4728 19.5769 25.1722 20.0308 24.7183C20.4847 24.2645 20.7853 23.6801 20.8906 23.0469C21.6132 22.599 22.4053 22.2742 23.2344 22.086C23.759 22.4523 24.3835 22.6488 25.0234 22.6488C25.6633 22.6488 26.2878 22.4523 26.8125 22.086C27.6416 22.2742 28.4336 22.599 29.1562 23.0469C29.2616 23.6801 29.5622 24.2645 30.0161 24.7183C30.4699 25.1722 31.0543 25.4728 31.6875 25.5782C32.0751 26.192 32.3675 26.8611 32.5547 27.5625C32.5547 27.6719 32.6172 27.7891 32.6406 27.8985C32.2743 28.4231 32.0778 29.0476 32.0778 29.6875C32.0778 30.3275 32.2743 30.9519 32.6406 31.4766H32.5938ZM41.4062 28.125V31.25H38.2812V29.6875C38.2783 29.1652 38.2444 28.6434 38.1797 28.125H41.4062Z" fill="#D5D5D5"/>
</svg>
