<svg width="65" height="65" viewBox="0 0 65 65" fill="none" xmlns="http://www.w3.org/2000/svg">
<path d="M56.5622 1.9502H8.43621C4.86121 1.9502 1.94922 4.86218 1.94922 8.43718V40.3522C1.94922 43.9272 4.86121 46.8392 8.43621 46.8392H23.6488C23.4836 47.2711 23.3827 47.7352 23.3827 48.2246C23.3827 49.9865 24.5644 51.4617 26.1713 51.9437L25.6092 60.4761C25.5572 61.1392 25.7913 61.8022 26.2462 62.2832C26.7012 62.7772 27.3512 63.0502 28.0142 63.0502H37.0232C37.6992 63.0502 38.3362 62.7772 38.7913 62.2832C39.2462 61.8022 39.4802 61.1392 39.4413 60.4761L38.8783 51.9416C40.4818 51.4575 41.6602 49.984 41.6602 48.2246C41.6602 47.7352 41.5593 47.2711 41.394 46.8392H56.5622C60.1372 46.8392 63.0492 43.9272 63.0492 40.3522V8.43718C63.0492 4.86218 60.1372 1.9502 56.5622 1.9502ZM17.7702 7.1502C18.4852 7.1502 19.0702 7.73521 19.0702 8.4502C19.0702 9.16518 18.4852 9.7502 17.7702 9.7502C17.0552 9.7502 16.4702 9.16518 16.4702 8.4502C16.4702 7.73521 17.0552 7.1502 17.7702 7.1502ZM13.2202 7.1502C13.9352 7.1502 14.5202 7.73521 14.5202 8.4502C14.5202 9.16518 13.9352 9.7502 13.2202 9.7502C12.5052 9.7502 11.9202 9.16518 11.9202 8.4502C11.9202 7.73521 12.5052 7.1502 13.2202 7.1502ZM8.6702 7.1502C9.38518 7.1502 9.9702 7.73521 9.9702 8.4502C9.9702 9.16518 9.38518 9.7502 8.6702 9.7502C7.95521 9.7502 7.3702 9.16518 7.3702 8.4502C7.3702 7.73521 7.95521 7.1502 8.6702 7.1502ZM32.5208 33.6675C32.6465 33.6675 32.748 33.566 32.748 33.4403V31.7982C33.9397 34.3431 35.7374 36.2267 37.8312 37.0686L36.2177 44.324H28.8239L27.2116 37.0711C29.2991 36.2337 31.0973 34.3551 32.2936 31.8133V33.4403C32.2936 33.566 32.3951 33.6675 32.5208 33.6675ZM37.7602 49.5246H27.2827C26.5654 49.5246 25.9827 48.9413 25.9827 48.2246C25.9827 47.508 26.5654 46.9246 27.2827 46.9246H37.7602C38.4774 46.9246 39.0602 47.508 39.0602 48.2246C39.0602 48.9413 38.4774 49.5246 37.7602 49.5246ZM60.4492 40.3522C60.4492 42.4972 58.7072 44.2392 56.5622 44.2392H38.9007L40.6318 36.4522C40.708 36.1088 40.642 35.7489 40.4478 35.455C40.2535 35.1611 39.9488 34.958 39.6035 34.8926C37.3133 34.461 35.3087 32.1041 34.3718 28.7392C34.1382 27.9026 33.3955 27.3396 32.5259 27.3396C31.655 27.3396 30.9136 27.902 30.68 28.7379C29.7354 32.1092 27.7283 34.4673 25.4419 34.892C25.0953 34.9567 24.7894 35.1592 24.5951 35.4538C24.4009 35.7477 24.3336 36.1082 24.4098 36.4522L26.1409 44.2392H8.43621C6.29125 44.2392 4.54922 42.4972 4.54922 40.3522V14.9502H60.4492V40.3522ZM32.2936 37.3403C32.2936 37.2146 32.3951 37.113 32.5208 37.113C32.6465 37.113 32.748 37.2146 32.748 37.3403V38.6632C33.6379 38.7764 34.3312 39.53 34.3312 40.45C34.3312 41.4478 33.5187 42.2597 32.5208 42.2597C31.5229 42.2597 30.7104 41.4478 30.7104 40.45C30.7104 39.53 31.4037 38.7764 32.2936 38.6632V37.3403ZM17.148 25.6085C18.8349 25.6085 20.2579 24.5181 20.7876 23.0102H24.0647C21.2996 24.9164 18.937 27.7347 17.2621 31.2135H16.1451C14.8197 31.2135 13.7406 32.2926 13.7406 33.6187V36.6084C13.7406 37.9344 14.8197 39.0135 16.1451 39.0135H19.1349C20.4615 39.0135 21.5406 37.9344 21.5406 36.6084V33.6187C21.5406 32.6371 20.9477 31.7936 20.1024 31.4202C22.175 27.5765 25.2073 24.7817 28.6361 23.5686C28.8135 24.7208 29.8031 25.6085 31.0037 25.6085H33.9947C35.2003 25.6085 36.1926 24.7134 36.3638 23.554C39.8139 24.7667 42.8522 27.5653 44.9351 31.4228C44.093 31.7974 43.5022 32.639 43.5022 33.6187V36.6084C43.5022 37.9344 44.5813 39.0135 45.9067 39.0135H48.8965C50.2231 39.0135 51.3022 37.9344 51.3022 36.6084V33.6187C51.3022 32.2926 50.2231 31.2135 48.8965 31.2135H47.7741C46.0972 27.7376 43.7371 24.9182 40.9758 23.0102H44.2109C44.7406 24.5181 46.1636 25.6085 47.8504 25.6085C49.9857 25.6085 51.7225 23.8718 51.7225 21.7365C51.7225 19.6011 49.9857 17.8644 47.8504 17.8644C46.1829 17.8644 44.7713 18.9292 44.2272 20.4102H36.3992V20.2137C36.3992 18.8876 35.3201 17.8085 33.9947 17.8085H31.0037C29.6783 17.8085 28.5992 18.8876 28.5992 20.2137V20.4102H20.7713C20.2272 18.9292 18.8156 17.8644 17.148 17.8644C15.0127 17.8644 13.276 19.6011 13.276 21.7365C13.276 23.8718 15.0127 25.6085 17.148 25.6085ZM18.9406 36.4135H16.3406V33.8135H18.9406V36.4135ZM48.7022 36.4135H46.1022V33.8135H48.7022V36.4135ZM47.8504 20.4644C48.5524 20.4644 49.1225 21.0351 49.1225 21.7365C49.1225 22.4379 48.5524 23.0085 47.8504 23.0085C47.1483 23.0085 46.5783 22.4379 46.5783 21.7365C46.5783 21.0351 47.1483 20.4644 47.8504 20.4644ZM33.7992 20.4085V23.0085H31.1992V20.4085H33.7992ZM17.148 20.4644C17.8501 20.4644 18.4201 21.0351 18.4201 21.7365C18.4201 22.4379 17.8501 23.0085 17.148 23.0085C16.446 23.0085 15.876 22.4379 15.876 21.7365C15.876 21.0351 16.446 20.4644 17.148 20.4644Z" fill="#6A0DAD"/>
</svg>
