<svg width="55" height="55" viewBox="0 0 55 55" fill="none" xmlns="http://www.w3.org/2000/svg">
<path fill-rule="evenodd" clip-rule="evenodd" d="M46.4358 10.664L47.8577 12.0859C48.1485 12.3767 48.1485 12.8484 47.8577 13.1393C47.5668 13.4301 47.0953 13.4301 46.8043 13.1393L45.3823 11.7173C45.3436 11.6786 45.2806 11.6786 45.2419 11.7173L43.82 13.1392C43.5292 13.43 43.0575 13.43 42.7666 13.1392C42.4758 12.8483 42.4758 12.3766 42.7666 12.0858L44.1885 10.6639C44.2272 10.6252 44.2272 10.5622 44.1885 10.5235L42.7666 9.1016C42.4758 8.81076 42.4758 8.33908 42.7666 8.04824C43.0575 7.7574 43.5292 7.7574 43.82 8.04824L45.2419 9.4701C45.2806 9.50882 45.3436 9.50882 45.3823 9.4701L46.8043 8.04824C47.0951 7.7574 47.5667 7.7574 47.8577 8.04824C48.1485 8.33908 48.1485 8.81076 47.8577 9.1016L46.4358 10.5236C46.3971 10.5623 46.3971 10.6253 46.4358 10.664ZM8.74936 45.5015H46.251C46.3057 45.5015 46.3503 45.4569 46.3503 45.4022V27.0072C46.3503 25.7255 45.3015 24.6766 44.0198 24.6766H10.9806C9.69888 24.6766 8.65003 25.7255 8.65003 27.0072V45.4023C8.65003 45.4569 8.69458 45.5015 8.74936 45.5015ZM21.4187 34.0258L20.5674 33.0804C20.5198 33.0275 20.512 32.9531 20.5476 32.8915L21.8198 30.688C21.8554 30.6263 21.9236 30.5959 21.9933 30.6108L23.8105 30.9971C23.8408 31.0036 23.8695 30.9967 23.8936 30.9772C24.3558 30.603 24.8775 30.2988 25.4421 30.0817C25.471 30.0706 25.4913 30.0491 25.5008 30.0196L26.0744 28.2546C26.0964 28.1868 26.1568 28.1429 26.2279 28.1429H28.7723C28.8435 28.1429 28.904 28.1868 28.9259 28.2546L29.4994 30.0196C29.509 30.0491 29.5294 30.0705 29.5582 30.0817C30.1228 30.2988 30.6444 30.603 31.1066 30.9772C31.1307 30.9967 31.1594 31.0036 31.1898 30.9971L33.007 30.6108C33.0766 30.596 33.1448 30.6264 33.1805 30.688L34.4526 32.8915C34.4883 32.9532 34.4803 33.0275 34.4328 33.0804L33.1905 34.4601C33.1698 34.4831 33.1614 34.5114 33.1662 34.542C33.259 35.1349 33.2589 35.7382 33.1659 36.331C33.1611 36.3616 33.1696 36.3899 33.1903 36.4128L34.4328 37.7928C34.4805 37.8457 34.4883 37.9201 34.4526 37.9818L33.1806 40.1853C33.1449 40.2469 33.0766 40.2774 33.0071 40.2625L31.1905 39.8764C31.1601 39.8699 31.1314 39.8769 31.1073 39.8963C30.6449 40.2708 30.123 40.5748 29.5582 40.7919C29.5292 40.8031 29.509 40.8245 29.4994 40.854L28.926 42.6187C28.904 42.6865 28.8436 42.7304 28.7724 42.7304H26.228C26.1569 42.7304 26.0964 42.6865 26.0745 42.6187L25.5009 40.8537C25.4914 40.8242 25.471 40.8028 25.4422 40.7916C24.8776 40.5745 24.3559 40.2703 23.8937 39.8961C23.8696 39.8766 23.8409 39.8697 23.8106 39.8762L21.9934 40.2624C21.9237 40.2773 21.8555 40.2468 21.8199 40.1852L20.5477 37.9817C20.5121 37.9199 20.5199 37.8456 20.5675 37.7927L21.8099 36.413C21.8306 36.39 21.8389 36.3617 21.8342 36.3311C21.7414 35.7384 21.7414 35.1344 21.8342 34.5419C21.839 34.5113 21.8306 34.483 21.8099 34.46L21.4187 34.0258ZM24.8102 47.1403L25.3144 48.0134C25.3326 48.045 25.3639 48.0632 25.4004 48.0632H27.5002V48.0661L29.5982 48.066C29.6346 48.066 29.666 48.048 29.6842 48.0164L30.19 47.1404C30.2083 47.1088 30.2083 47.0727 30.19 47.041C30.1718 47.0095 30.1405 46.9914 30.104 46.9914H24.8963C24.8599 46.9914 24.8285 47.0095 24.8102 47.041C24.792 47.0725 24.792 47.1087 24.8102 47.1403ZM22.9542 46.9913C22.9906 46.9913 23.022 47.0094 23.0402 47.0409L24.2368 49.1134C24.2384 49.1161 24.2396 49.1185 24.2409 49.1213C24.3592 49.3761 24.6174 49.5528 24.9168 49.5528H27.5002V49.5498L30.0835 49.5496C30.3402 49.5494 30.5895 49.4158 30.7266 49.1774L31.9601 47.0409C31.9784 47.0094 32.0096 46.9913 32.0462 46.9913H48.7646C48.7956 46.9913 48.8223 47.0041 48.8418 47.0282C48.8613 47.0523 48.8682 47.081 48.8619 47.1113C48.4577 49.0136 46.7583 50.4305 44.7685 50.4305H10.2321C8.24226 50.4305 6.54287 49.0136 6.13873 47.1113C6.13224 47.0811 6.13928 47.0523 6.15875 47.0282C6.17822 47.0041 6.20495 46.9913 6.23597 46.9913H22.9542ZM9.6881 4.56982C13.0151 4.56982 15.7121 7.26691 15.7121 10.5939C15.7121 13.9208 13.0151 16.6179 9.6881 16.6179C6.36115 16.6179 3.66406 13.9208 3.66406 10.5939C3.66406 7.26691 6.36115 4.56982 9.6881 4.56982ZM6.30835 10.7538L7.76277 13.0638C7.98134 13.4109 8.43982 13.5151 8.78698 13.2966C8.9225 13.2112 12.156 10.2543 12.5676 9.88139C12.8713 9.60661 12.8947 9.13757 12.6199 8.83386C12.3452 8.53015 11.8761 8.50672 11.5724 8.7815L8.63617 11.4446C8.61362 11.4651 8.58612 11.4735 8.55598 11.4694C8.52584 11.4653 8.50164 11.4496 8.48547 11.4239L7.56521 9.96235C7.34664 9.6153 6.88816 9.51102 6.541 9.72959C6.19395 9.94816 6.08978 10.4068 6.30835 10.7538ZM27.5002 31.8956C29.4559 31.8956 31.0413 33.481 31.0413 35.4366C31.0413 37.3923 29.4559 38.9777 27.5002 38.9777C25.5445 38.9777 23.9591 37.3923 23.9591 35.4366C23.9591 33.481 25.5445 31.8956 27.5002 31.8956ZM21.5373 10.2548H25.3061C25.7175 10.2548 26.051 10.5884 26.051 10.9998V23.0751C26.051 23.1298 26.0065 23.1745 25.9517 23.1745H24.6605C24.6059 23.1745 24.5612 23.1299 24.5612 23.0751V11.844C24.5612 11.7893 24.5167 11.7447 24.4619 11.7447H21.5372C21.4931 11.7447 21.4557 11.7722 21.4425 11.8142C21.4293 11.8563 21.4444 11.9002 21.4805 11.9254L21.9101 12.2243C22.2476 12.4589 22.3308 12.9227 22.0963 13.2602C21.8617 13.5976 21.3979 13.6809 21.0605 13.4464L18.4353 11.6199C18.0078 11.3297 17.9825 10.6944 18.4221 10.3887L21.0605 8.55314C21.3979 8.31851 21.8617 8.40189 22.0963 8.73937C22.331 9.07685 22.2476 9.54061 21.9101 9.77524L21.4805 10.074C21.4444 10.0992 21.4293 10.1432 21.4425 10.1852C21.4558 10.2273 21.4932 10.2548 21.5373 10.2548ZM33.0903 9.77524C32.7528 9.54061 32.6694 9.07685 32.904 8.73937C33.1387 8.40189 33.6024 8.31862 33.9399 8.55314L36.5783 10.3887C37.0178 10.6944 36.9925 11.3297 36.5651 11.6199L33.9399 13.4464C33.6024 13.681 33.1387 13.5976 32.904 13.2602C32.6694 12.9227 32.7528 12.4589 33.0903 12.2243L33.5198 11.9254C33.556 11.9002 33.5711 11.8562 33.5579 11.8142C33.5447 11.7721 33.5073 11.7447 33.4632 11.7447H30.5385C30.4838 11.7447 30.4392 11.7892 30.4392 11.844V23.0751C30.4392 23.1298 30.3946 23.1745 30.3398 23.1745H29.0487C28.994 23.1745 28.9493 23.1299 28.9493 23.0751V10.9998C28.9493 10.5884 29.2828 10.2548 29.6942 10.2548H33.4631C33.5072 10.2548 33.5446 10.2273 33.5578 10.1853C33.571 10.1432 33.5559 10.0993 33.5197 10.0741L33.0903 9.77524ZM41.0526 14.8535C43.4052 17.206 47.2194 17.206 49.5719 14.8535C51.9245 12.501 51.9245 8.68668 49.5719 6.33422C47.2193 3.98176 43.4051 3.98176 41.0526 6.33422C38.7001 8.68668 38.7001 12.5009 41.0526 14.8535Z" fill="#D5D5D5"/>
</svg>
