<svg width="58" height="58" viewBox="0 0 58 58" fill="none" xmlns="http://www.w3.org/2000/svg">
<g clip-path="url(#clip0_2998_292)">
<path d="M12.0082 24.0154V17.2186C12.0081 16.9911 12.0569 16.7663 12.1514 16.5594C12.2458 16.3524 12.3837 16.1683 12.5556 16.0194C12.7276 15.8705 12.9296 15.7603 13.1478 15.6964C13.3661 15.6325 13.5956 15.6163 13.8207 15.6489L18.7489 16.3522L20.0385 11.192L14.1995 2.85449C8.95759 5.45622 4.78664 9.80403 2.40473 15.1495C0.0228067 20.4949 -0.421058 26.5035 1.14954 32.1409L8.05245 30.3465L12.0082 24.0154Z" fill="#6A0DAD"/>
<path d="M53.4688 34.6641H49.6172V34.4375C49.6172 32.8151 48.9727 31.2592 47.8255 30.112C46.6783 28.9648 45.1224 28.3203 43.5 28.3203C41.8776 28.3203 40.3217 28.9648 39.1745 30.112C38.0273 31.2592 37.3828 32.8151 37.3828 34.4375V34.6641H33.5312C32.3896 34.6641 31.2947 35.1176 30.4874 35.9249C29.6801 36.7322 29.2266 37.8271 29.2266 38.9688V40.3281C29.2268 40.7487 29.394 41.1519 29.6913 41.4493C29.9887 41.7467 30.392 41.9138 30.8125 41.9141H56.1875C56.608 41.9138 57.0113 41.7467 57.3087 41.4493C57.606 41.1519 57.7732 40.7487 57.7734 40.3281V38.9688C57.7734 37.8271 57.3199 36.7322 56.5126 35.9249C55.7053 35.1176 54.6104 34.6641 53.4688 34.6641ZM40.5547 34.4375C40.5547 33.6564 40.865 32.9072 41.4174 32.3549C41.9697 31.8025 42.7189 31.4922 43.5 31.4922C44.2811 31.4922 45.0303 31.8025 45.5826 32.3549C46.135 32.9072 46.4453 33.6564 46.4453 34.4375V34.6641H40.5547V34.4375Z" fill="#6A0DAD"/>
<path d="M45.0859 46.2188C45.0859 46.6394 44.9188 47.0428 44.6214 47.3402C44.324 47.6376 43.9206 47.8047 43.5 47.8047C43.0794 47.8047 42.676 47.6376 42.3786 47.3402C42.0812 47.0428 41.9141 46.6394 41.9141 46.2188V45.0859H31.0391V56.1875C31.0389 56.3958 31.0799 56.6021 31.1595 56.7946C31.2392 56.987 31.356 57.1619 31.5033 57.3092C31.6506 57.4565 31.8255 57.5733 32.0179 57.653C32.2104 57.7326 32.4167 57.7736 32.625 57.7734H54.375C54.5833 57.7736 54.7896 57.7326 54.9821 57.653C55.1745 57.5733 55.3494 57.4565 55.4967 57.3092C55.644 57.1619 55.7608 56.987 55.8405 56.7946C55.9201 56.6021 55.9611 56.3958 55.9609 56.1875V45.0859H45.0859V46.2188Z" fill="#6A0DAD"/>
<path d="M34.689 31.4922C35.2019 29.9557 36.1079 28.5801 37.3169 27.5021C38.526 26.424 39.9961 25.6811 41.5811 25.347C43.1662 25.013 44.811 25.0995 46.3523 25.5978C47.8936 26.0962 49.2777 26.9892 50.3671 28.188C50.9029 23.4111 50.0587 18.5807 47.9342 14.2687C45.8098 9.95675 42.4942 6.34389 38.3801 3.85791L33.5697 9.35522L35.8952 14.7818C35.98 14.9791 36.0237 15.1916 36.0237 15.4063C36.0237 15.621 35.98 15.8334 35.8952 16.0307L33.1764 22.3744C33.0408 22.6915 32.8053 22.9556 32.5058 23.1266L26.8245 26.3719L25.293 36.3343L26.3324 36.946C26.7757 35.3776 27.7183 33.9966 29.0173 33.0124C30.3164 32.0282 31.901 31.4945 33.5308 31.4922H34.689Z" fill="#6A0DAD"/>
<path d="M26.0553 40.4631L22.7575 38.5229C22.4838 38.362 22.2646 38.1227 22.1284 37.8359C21.9922 37.5491 21.9452 37.2281 21.9935 36.9143L23.806 25.133C23.8422 24.8972 23.9311 24.6726 24.0663 24.476C24.2014 24.2794 24.3791 24.1158 24.5863 23.9975L30.4688 20.6353L32.7145 15.4062L30.2676 9.68689C30.1498 9.41216 30.1121 9.1097 30.159 8.81447C30.2058 8.51924 30.3352 8.24328 30.5322 8.01848L35.4921 2.34898C29.705 -0.191814 23.1735 -0.461316 17.1968 1.59408L23.0484 9.96873C23.1787 10.1547 23.2675 10.3665 23.3088 10.5898C23.3501 10.8131 23.3429 11.0426 23.2877 11.2629L21.4752 18.5129C21.3802 18.8936 21.1474 19.2255 20.8218 19.4445C20.4962 19.6635 20.1009 19.7539 19.7125 19.6982L15.1813 19.0503V24.4687C15.1812 24.7661 15.0977 25.0575 14.9402 25.3097L10.4089 32.5597C10.1935 32.9032 9.8551 33.1515 9.46281 33.2539L2.19922 35.1407C4.12466 39.6972 7.34917 43.5858 11.4704 46.3214C15.5917 49.0569 20.4273 50.5184 25.3738 50.5234C26.2148 50.5234 27.0456 50.4826 27.866 50.4011V44.0573C27.3197 43.6272 26.8744 43.0823 26.5615 42.4613C26.2487 41.8403 26.0759 41.1582 26.0553 40.4631Z" fill="#6A0DAD"/>
</g>
<defs>
<clipPath id="clip0_2998_292">
<rect width="58" height="58" fill="white"/>
</clipPath>
</defs>
</svg>
