<svg width="40" height="44" viewBox="0 0 40 44" fill="none" xmlns="http://www.w3.org/2000/svg">
<path fill-rule="evenodd" clip-rule="evenodd" d="M11.9682 30.3993C8.605 27.9298 6.5762 24.0103 6.5762 19.7635C6.5762 12.4802 12.4803 6.5761 19.7636 6.5761C27.0467 6.5761 32.9509 12.4804 32.9509 19.7635C32.9509 24.0103 30.9222 27.9297 27.559 30.3992C27.5355 30.4165 27.5224 30.441 27.5211 30.4701C27.4724 31.6167 26.6093 32.5664 25.4894 32.7386C25.4399 32.7462 25.4054 32.7916 25.4112 32.8413L25.6084 34.5081C25.6156 34.5693 25.6784 34.6064 25.7355 34.5833C26.4797 34.2827 27.1848 33.9333 27.8844 33.5197C28.0969 33.3941 28.349 33.3945 28.5539 33.4985L28.5542 33.4979L32.0879 35.2985C32.1244 35.3171 32.1668 35.3103 32.1958 35.2814L35.2813 32.1959C35.3103 32.167 35.317 32.1245 35.2984 32.088L33.4979 28.5543C33.3729 28.3089 33.4099 28.0705 33.5379 27.8535C34.2846 26.5885 34.8723 25.173 35.2366 23.7493C35.2976 23.5101 35.476 23.332 35.6945 23.2607L35.694 23.2591L39.4628 22.0346C39.5017 22.022 39.527 21.9871 39.527 21.9462V17.5809C39.527 17.54 39.5017 17.5052 39.4628 17.4925L35.6936 16.2679C35.416 16.1777 35.2886 15.9793 35.2235 15.7287C34.8526 14.3012 34.2697 12.9114 33.5197 11.6428C33.3941 11.4303 33.3945 11.1782 33.4985 10.9733L33.4979 10.973L35.2984 7.4392C35.317 7.4027 35.3102 7.3603 35.2813 7.3313L32.1957 4.2458C32.1668 4.2168 32.1243 4.2101 32.0878 4.2287L28.5541 6.0292C28.3087 6.1542 28.0703 6.1172 27.8533 5.9892C26.5886 5.2426 25.1725 4.6546 23.749 4.2904C23.5098 4.2294 23.3317 4.051 23.2604 3.8325L23.2588 3.833L22.0346 0.0641998C22.022 0.0252998 21.9872 0 21.9462 0H17.5808C17.5399 0 17.5051 0.0252998 17.4924 0.0641998L16.2681 3.8329C16.1779 4.1105 15.9794 4.2379 15.7288 4.303C14.3004 4.674 12.9118 5.2567 11.6425 6.0072C11.43 6.1328 11.1779 6.1324 10.973 6.0284L10.9727 6.029L7.4392 4.2286C7.4027 4.21 7.3603 4.2167 7.3313 4.2457L4.2458 7.3313C4.2168 7.3602 4.2101 7.4027 4.2287 7.4392L6.0292 10.973C6.1541 11.2184 6.1172 11.4568 5.9892 11.6737C5.2428 12.9385 4.6551 14.3542 4.2909 15.7777C4.2299 16.0169 4.0515 16.195 3.833 16.2663L3.8335 16.2679L0.0642002 17.4925C0.0253002 17.5051 0 17.5399 0 17.5809V21.9463C0 21.9872 0.0253002 22.022 0.0642002 22.0347L3.8334 23.2594C4.1109 23.3496 4.2384 23.548 4.3035 23.7985C4.6744 25.226 5.2573 26.6158 6.0073 27.8844C6.1329 28.0969 6.1325 28.349 6.0285 28.5539L6.0291 28.5542L4.2286 32.088C4.21 32.1245 4.2167 32.1669 4.2457 32.1959L7.3312 35.2814C7.3602 35.3103 7.4026 35.3171 7.4391 35.2985L10.9729 33.4979C11.2095 33.3775 11.4644 33.4075 11.6726 33.5373C12.2404 33.8906 13.1243 34.3123 13.7915 34.5834C13.8486 34.6066 13.9115 34.5695 13.9188 34.5082L14.116 32.8413C14.1219 32.7916 14.0873 32.7462 14.0379 32.7386C12.918 32.5664 12.0549 31.6167 12.0062 30.4702C12.0049 30.4411 11.9917 30.4166 11.9682 30.3993ZM16.2983 27.1347C16.2424 27.1347 16.1994 27.0864 16.206 27.0309L16.5413 24.1977C16.7306 22.5975 15.3981 21.2756 13.8676 21.0928L13.2343 21.0703C13.0337 21.0641 12.886 20.9122 12.886 20.7232V16.0342C12.886 15.983 12.9277 15.9413 12.9789 15.9413H14.4288C14.48 15.9413 14.5217 15.983 14.5217 16.0342V17.709C14.5217 18.0939 14.8338 18.4061 15.2188 18.4061H18.2486C18.6335 18.4061 18.9457 18.094 18.9457 17.709V16.0342C18.9457 15.983 18.9874 15.9413 19.0386 15.9413H20.4885C20.5397 15.9413 20.5814 15.983 20.5814 16.0342V17.709C20.5814 18.0939 20.8935 18.4061 21.2784 18.4061H24.3083C24.6932 18.4061 25.0053 18.094 25.0053 17.709V16.0342C25.0053 15.983 25.047 15.9413 25.0982 15.9413H26.5481C26.5993 15.9413 26.641 15.983 26.641 16.0342V20.7232C26.641 20.8183 26.6019 20.905 26.5388 20.9681C26.4055 21.1014 26.2331 21.0703 26.026 21.0703C24.353 21.0703 22.7807 22.466 22.9857 24.1977L23.321 27.0309C23.3276 27.0864 23.2846 27.1347 23.2287 27.1347H16.2983ZM14.4027 31.3724C13.8515 31.3724 13.398 30.9189 13.398 30.3678V29.5336C13.398 28.9824 13.8515 28.5289 14.4027 28.5289H25.1246C25.6758 28.5289 26.1292 28.9824 26.1292 29.5336V30.3678C26.1292 30.919 25.6758 31.3724 25.1246 31.3724H14.4027ZM14.3038 38.435C14.2702 38.435 14.2365 38.4352 14.203 38.4354C14.1285 38.436 14.0837 38.3538 14.1245 38.2915C14.6017 37.5647 15.0654 36.6696 15.1443 36.0034L15.5176 32.8484C15.5232 32.8014 15.5625 32.7664 15.6099 32.7664H23.9173C23.9646 32.7664 24.004 32.8014 24.0096 32.8484L24.3829 36.0034C24.4617 36.6695 24.9254 37.5647 25.4027 38.2915C25.422 38.3209 25.4235 38.3561 25.4066 38.387C25.3722 38.4501 25.304 38.435 25.2234 38.435H14.3038ZM25.2234 39.8291H14.3038C12.4372 39.8291 10.7531 40.3221 9.5437 41.1164C8.714 41.6613 8.1165 42.3441 7.8603 43.0929C7.8396 43.1535 7.8842 43.2159 7.9482 43.2159H31.5788C31.6428 43.2159 31.6874 43.1535 31.6667 43.0929C31.4105 42.3441 30.813 41.6613 29.9833 41.1164C28.7741 40.3221 27.0901 39.8291 25.2234 39.8291Z" fill="#D5D5D5"/>
</svg>
